<svg width="30" height="28" viewBox="0 0 30 28" fill="none" xmlns="http://www.w3.org/2000/svg">
<path fill-rule="evenodd" clip-rule="evenodd" d="M24.8977 5.41021C24.904 5.28658 24.9072 5.16214 24.9072 5.03697C24.9072 4.80921 24.8967 4.58388 24.8761 4.36141H28.6305C28.7091 4.36141 28.7838 4.38554 28.8473 4.42996C28.7837 4.38545 28.709 4.36125 28.6303 4.36125H24.8761C24.871 4.30676 24.8654 4.25244 24.8591 4.19829H28.6303C28.8254 4.19829 28.9984 4.30092 29.1016 4.46527C29.2033 4.62721 29.2249 4.82075 29.1722 5.00126L29.1707 5.0063L24.806 18.327V21.0857C24.8062 21.0956 24.8062 21.1054 24.8059 21.1153C25.6086 21.7215 26.1297 22.7301 26.1297 23.859C26.1297 25.6865 24.7641 27.1989 23.0493 27.1989C21.3345 27.1989 19.969 25.6865 19.969 23.859C19.969 23.0401 20.2433 22.2844 20.7003 21.6997H13.704C14.161 22.2844 14.4352 23.0401 14.4352 23.859C14.4352 25.6867 13.0637 27.1989 11.3549 27.1989C9.64013 27.1989 8.27462 25.6865 8.27462 23.859C8.27462 22.7328 8.79322 21.7263 9.59258 21.1196L9.59221 21.1076L9.59207 21.0938V18.2983L8.62553 14.6108L6.0955 4.96533C6.09137 4.94959 6.08785 4.93369 6.08493 4.91768L5.3317 2.01172H1.37167C1.03898 2.01172 0.800049 1.727 0.800049 1.40576C0.800049 1.08452 1.03898 0.799805 1.37167 0.799805H5.76767C6.0318 0.799805 6.25427 0.991888 6.31699 1.24618L7.08013 4.19829H10.0948C10.0885 4.25244 10.0829 4.30676 10.0778 4.36125H7.12226L7.1223 4.36141H10.0778C10.0572 4.58388 10.0467 4.80921 10.0467 5.03697C10.0467 5.16214 10.0499 5.28658 10.0562 5.41021H7.39779L10.5991 17.6148H23.8296L27.8284 5.41021H24.8977ZM6.2467 4.88378L6.24694 4.88517L6.24646 4.88333L6.24624 4.88199L6.2467 4.88378ZM23.8281 18.8267V20.6266L23.8279 20.6265V18.8267H23.8281ZM22.2094 20.6446L22.2099 20.6445H12.1944L12.1949 20.6446H22.2094ZM20.1341 23.859C20.1341 23.0257 20.4294 22.2667 20.912 21.6997H20.9123C20.4296 22.2667 20.1343 23.0258 20.1343 23.8592C20.1343 24.7853 20.499 25.6195 21.0802 26.2005C20.4989 25.6195 20.1341 24.7852 20.1341 23.859ZM24.7741 21.2985C24.8305 21.3437 24.8853 21.3911 24.9385 21.4405C24.8853 21.3911 24.8305 21.3437 24.7741 21.2985L24.7741 21.2985ZM25.1515 23.8654C25.1515 23.2342 24.9176 22.6629 24.539 22.2486C24.9177 22.6629 25.1517 23.2343 25.1517 23.8655C25.1517 25.1312 24.2109 26.1564 23.0495 26.1564C22.5518 26.1564 22.0946 25.9681 21.7345 25.6533C22.0945 25.968 22.5517 26.1563 23.0493 26.1563C24.2108 26.1563 25.1515 25.1311 25.1515 23.8654ZM9.75718 21.003L9.75734 21.0029V18.6459L9.75718 18.6457V21.003ZM14.2701 23.859C14.2701 25.2672 13.4232 26.463 12.2593 26.879C13.4229 26.4628 14.2694 25.2671 14.2694 23.8592C14.2694 23.0258 13.9741 22.2667 13.4914 21.6997H13.4922C13.9748 22.2667 14.2701 23.0257 14.2701 23.859ZM10.6692 21.6997H10.6694C9.84738 22.01 9.25273 22.8622 9.25273 23.8654C9.25273 25.1311 10.1935 26.1563 11.3549 26.1563C11.5147 26.1563 11.6703 26.1369 11.8199 26.1001C11.6702 26.137 11.5143 26.1564 11.3543 26.1564C10.1928 26.1564 9.25209 25.1312 9.25209 23.8655C9.25209 22.8621 9.84694 22.0099 10.6692 21.6997ZM28.0556 5.24741L23.9863 17.6667L23.986 17.6669L28.0553 5.24741H28.0556ZM23.836 17.7779L23.8362 17.7777H10.6403L10.6404 17.7779H23.836ZM23.6628 18.8267H10.7353V20.4815H23.6628V18.8267ZM5.76767 0.962767C5.86968 0.962767 5.96609 1.00543 6.03894 1.07695C5.96611 1.00553 5.86976 0.962926 5.76784 0.962926H1.37183C1.14535 0.962926 0.965326 1.15911 0.965326 1.40592C0.965326 1.5375 1.01649 1.65469 1.09858 1.73544C1.0164 1.65469 0.965165 1.53743 0.965165 1.40576C0.965165 1.15895 1.14519 0.962767 1.37167 0.962767H5.76767ZM6.14795 4.50327L5.45994 1.84892H5.46006L6.14803 4.50312L6.14795 4.50327ZM8.80977 14.6631L8.60214 13.8709L8.77193 14.5183L8.9788 15.3075L8.80977 14.6631ZM11.3549 21.7374C10.3052 21.7374 9.41785 22.6744 9.41785 23.8654C9.41785 25.0566 10.2997 25.9933 11.3549 25.9933C12.4101 25.9933 13.292 25.0566 13.292 23.8654C13.292 22.6744 12.4046 21.7374 11.3549 21.7374ZM23.0493 21.7374C21.9996 21.7374 21.1122 22.6744 21.1122 23.8654C21.1122 25.0566 21.9941 25.9933 23.0493 25.9933C24.1046 25.9933 24.9864 25.0566 24.9864 23.8654C24.9864 22.6741 24.1046 21.7374 23.0493 21.7374Z" fill="#172437"/>
</svg>