<svg width="68" height="68" viewBox="0 0 68 68" fill="none" xmlns="http://www.w3.org/2000/svg">
<circle cx="34" cy="34" r="33" stroke="#DDDDDD" stroke-width="1.5"/>
<path d="M56.4257 26.9994C56.4134 26.4835 56.4773 25.8721 56.0946 25.5664C55.1528 24.8126 55.3261 23.8477 55.4685 22.9152C55.6564 21.6801 55.6141 20.4342 55.7712 19.1991C55.8782 18.3567 55.631 18.1134 54.7794 17.9987C54.5992 17.974 53.9824 17.9571 53.9493 18.2197C53.7067 20.1686 53.4888 21.9404 53.2432 23.8893C53.2093 24.1588 53.1392 24.4237 53.1023 24.6924C53.0438 25.1183 52.8597 25.4032 52.4008 25.4994C51.7686 25.6326 51.1672 25.9406 50.4095 25.8405C50.4134 24.9835 50.6082 24.2035 50.8769 23.4458C51.3751 22.0459 51.5707 20.579 51.8849 19.1383C52.0758 18.262 51.8341 17.3773 51.7755 16.5056C52.3792 16.2969 52.7165 16.6527 53.0684 16.943C53.3025 17.1363 53.5404 17.3819 53.6767 17.6537C53.7491 17.7985 53.8977 17.9894 53.9932 17.9363C54.0748 17.8901 53.9347 17.5852 53.8862 17.492C53.3156 16.4017 52.3007 15.8596 50.9678 16.0313C49.2707 16.2492 47.5689 16.3786 45.8633 16.5002C45.2851 16.5418 44.6806 16.4671 44.0962 16.588C43.9683 16.6149 43.6557 16.6026 43.6272 16.7343C43.5849 16.9291 43.9637 16.9052 44.11 16.8968C46.166 16.7751 48.2273 16.7528 50.2702 16.4271C51.1534 16.2862 51.4783 16.5726 51.6208 17.4581C51.727 18.1219 51.6169 18.7748 51.4806 19.4255C51.091 21.2913 50.572 23.1239 50.1046 24.9704C49.8035 26.1578 49.8605 26.1532 48.5915 26.3233C46.2376 26.639 43.9468 27.2674 41.6082 27.6516C41.2694 27.7071 40.9483 27.8765 40.6226 28.0027C39.8926 28.2861 39.5045 28.7882 39.5269 29.6059C39.5446 30.2265 39.4914 30.8495 39.4714 31.4717C39.4291 32.7938 39.4137 32.83 38.0338 32.7183C35.2032 32.4889 32.368 32.4072 29.5297 32.3888C28.4409 32.3818 28.173 32.0199 28.397 30.9096C28.9207 28.3208 29.4343 25.7296 29.9833 23.1462C30.3783 21.2843 30.6124 19.3893 31.1468 17.5575C31.4024 16.6804 31.5549 16.5387 32.4558 16.5426C33.6601 16.5472 34.8652 16.6111 36.0687 16.6742C37.2515 16.7358 38.4334 16.8198 39.6439 16.8991C39.8079 16.9099 40.1745 16.9499 40.1875 16.8267C40.213 16.5903 39.6524 16.6219 39.406 16.6049C37.3131 16.4602 35.2194 16.3231 33.1249 16.1968C31.3832 16.0921 31.0313 16.3701 30.6709 18.0865C30.6547 18.1627 30.6517 18.2412 30.6355 18.3175C30.2412 20.2179 29.8324 22.116 29.4604 24.021C29.3626 24.5215 29.1547 24.7625 28.6273 24.7856C27.8126 24.821 27.0002 24.925 26.1863 24.985C21.768 25.31 17.3481 25.6111 12.932 25.9622C11.5906 26.0685 10.9561 26.7153 11.0024 28.0682C11.1117 31.2522 11.1286 34.4393 11.1802 37.6256C11.2087 39.4144 11.221 41.2039 11.2603 42.9927C11.2842 44.0607 11.4982 45.0394 12.7672 45.2919C13.287 45.3951 13.3625 45.7193 13.2747 46.1505C13.113 46.9506 12.9397 47.7483 12.7749 48.5476C12.7172 48.8279 12.5978 49.1582 12.7126 49.4362C12.7911 49.6264 12.9305 49.7188 13.0344 49.7758C13.4341 49.996 14.5629 50.4118 14.8401 49.6056C15.0072 49.1212 15.1435 48.4837 15.2821 47.8754C15.316 47.7275 15.4084 47.3849 15.2813 47.361C15.152 47.3363 15.0403 47.7059 15.0011 47.8291C14.8609 48.2657 14.74 48.7455 14.6646 49.1289C14.5437 49.7426 14.2996 49.9344 13.7313 49.8374C13.5311 49.8035 13.1853 49.6102 13.1853 49.6102C13.1853 49.6102 12.8858 49.4369 12.9105 49.3176C13.1068 48.3666 13.3047 47.4157 13.5057 46.4654C13.7043 45.5299 13.7883 45.4644 14.6176 45.5599C15.3938 45.6492 15.403 45.6639 15.3907 46.6225C15.3899 46.6926 15.3468 46.8497 15.4184 46.8674C15.5408 46.8982 15.5955 46.6533 15.6217 46.5979C16.0514 45.707 16.0398 45.774 17.2603 45.9595C18.413 46.1351 19.5642 46.3161 20.7169 46.4901C25.9438 47.277 31.1691 48.0771 36.3998 48.8333C37.1829 48.9464 37.6634 49.256 37.9668 49.9898C38.4427 51.1379 38.9725 52.266 39.523 53.381C39.868 54.0794 40.6249 54.3658 41.2887 54.1356C41.8246 53.9492 41.9132 53.6043 41.7792 52.6572C41.6398 51.67 41.2964 50.7067 41.3487 49.6964C41.7869 49.4939 42.2304 49.5378 42.6169 49.3245C43.7404 48.7054 44.9216 48.2018 46.0435 47.5727C47.8392 46.5648 49.6726 45.6231 51.4991 44.6713C52.2098 44.3009 52.2645 44.334 52.7042 45.0155C52.9775 45.4398 53.2093 45.8972 53.5273 46.2837C53.8053 46.6218 54.2096 46.8759 54.6531 46.5748C55.0265 46.3215 55.216 45.958 55.0204 45.4652C54.8202 44.9608 54.6839 44.4311 54.4983 43.9205C54.3335 43.4685 54.362 43.0851 54.7909 42.794C55.1598 42.5437 55.427 42.2419 55.4316 41.7537C55.4508 39.9288 55.8027 38.1208 55.7019 36.2874C55.6634 35.5897 55.7226 34.8929 55.8027 34.1937C56.0769 31.802 56.4834 29.4219 56.4257 26.9994ZM53.7991 22.494C53.9277 21.3413 54.0486 20.1878 54.1772 19.0351C54.2219 18.6339 54.285 18.2559 54.8433 18.2905C55.3885 18.3236 55.4585 18.6878 55.43 19.1006C55.3145 20.7969 55.2129 22.4948 55.045 24.1865C54.9649 24.9904 54.9026 24.9843 53.5135 25.0921C53.4472 24.1534 53.7052 23.3318 53.7991 22.494ZM31.6688 32.7561C33.8418 32.8307 36.0125 32.9925 38.1824 33.1364C39.2389 33.2065 39.2766 33.2681 39.2774 34.323C39.2797 36.3074 39.2774 36.3413 37.2946 36.2096C34.193 36.004 31.0944 35.7507 27.9951 35.5127C23.7354 35.1855 19.4764 34.8544 14.9356 34.5032C15.8227 33.9642 16.5673 33.9511 17.2834 33.8657C18.0157 33.7779 18.7533 33.7063 19.4903 33.6955C22.2577 33.6531 24.9512 32.9516 27.7086 32.803C29.0323 32.7314 30.3529 32.7106 31.6688 32.7561ZM39.0733 41.6459C39.071 42.208 38.8115 42.3967 38.2825 42.3759C37.0397 42.3266 35.7992 42.2804 34.5757 42.0155C29.7038 40.9606 24.771 40.39 19.7929 40.1829C18.5924 40.1328 17.3927 40.0412 16.1961 39.9372C15.7349 39.8972 15.2821 39.7802 14.8609 39.5522C14.2287 39.2096 13.8322 38.7314 13.8499 37.9829C13.8691 37.1683 13.8768 36.352 13.9307 35.5397C13.9638 35.0407 14.2503 34.782 14.7885 34.8274C15.8727 34.9183 16.9584 34.9822 18.0426 35.0684C24.7818 35.6051 31.5202 36.1426 38.2594 36.6862C39.2266 36.764 39.2258 36.7786 39.2381 37.6896C39.2389 37.7281 39.2366 37.7673 39.2366 37.8058C39.2366 38.1554 39.2366 38.5058 39.2366 39.0702C39.3105 39.794 39.0779 40.7142 39.0733 41.6459ZM28.9037 26.8485C28.5965 28.5294 28.1191 30.1803 28.0228 31.8975C27.9959 32.3757 27.6609 32.4427 27.2928 32.4635C24.8473 32.5982 22.4564 33.1819 20.0092 33.3236C18.0026 33.4398 15.9728 33.4583 13.8275 34.4609C13.8275 32.2786 13.826 30.4183 13.8283 28.5572C13.8291 27.9496 14.2595 27.774 14.7493 27.7032C15.5947 27.5808 16.4418 27.4599 17.2919 27.3783C20.8901 27.031 24.4392 26.2887 28.0482 26.0269C28.9468 25.9614 29.0531 26.03 28.9037 26.8485ZM41.4812 52.8281C41.5382 53.1346 41.6552 53.4757 41.3195 53.6682C40.9221 53.8953 40.4917 53.8576 40.1098 53.5989C39.9889 53.5173 39.8895 53.3756 39.8264 53.2401C39.2243 51.948 38.4981 50.7098 38.0176 49.142C38.7237 49.2391 39.2558 49.303 39.7841 49.3861C40.8451 49.5532 40.8575 49.5548 41.0631 50.5404C41.2217 51.2989 41.3387 52.0666 41.4812 52.8281ZM54.6877 45.536C54.7855 45.8579 54.6839 46.1574 54.3328 46.2853C53.9624 46.42 53.7622 46.1813 53.5966 45.9026C53.4596 45.6716 53.3294 45.4367 53.1931 45.2057C52.4855 44.0022 52.4855 44.0022 53.8908 43.5471C54.3697 44.1169 54.4798 44.85 54.6877 45.536ZM55.3492 37.6295C55.43 38.9478 55.0535 40.256 55.1228 41.5851C55.1544 42.1865 54.7024 42.4714 54.2511 42.7209C52.6849 43.5848 51.1187 44.4488 49.5433 45.2966C47.8007 46.2352 46.0543 47.1677 44.2964 48.0786C43.6827 48.3967 43.032 48.6431 42.2812 48.9742C42.1796 43.5733 42.4614 38.3148 42.158 33.0225C42.1503 32.8839 42.1873 32.4396 42.0525 32.4057C41.9031 32.368 41.8593 32.7106 41.8646 32.9447C41.8716 33.262 41.8831 33.5938 41.8824 33.9049C41.8693 38.5373 41.8677 43.1698 41.8593 47.8022C41.8562 49.199 41.6444 49.3561 40.3015 49.0727C39.9034 48.9888 39.7047 48.8456 39.6763 48.3982C39.6293 47.6613 39.5292 46.929 39.5577 46.1867C39.5769 45.687 39.5661 45.1864 39.5631 44.545C39.5623 44.4511 39.6116 44.207 39.5153 44.1785C39.3867 44.1408 39.3398 44.3071 39.2943 44.4611C39.158 44.9162 39.252 45.389 39.2443 45.7378C39.2289 46.437 39.2743 47.1377 39.2851 47.8384C39.3005 48.8348 39.2343 48.9041 38.2086 48.7493C34.7081 48.2195 31.2107 47.6659 27.7094 47.14C23.0554 46.4408 18.3991 45.7593 13.7436 45.0679C13.4356 45.0224 13.1245 44.9824 12.825 44.9015C12.0373 44.6906 11.8132 44.4264 11.7254 43.6133C11.5206 41.7175 11.5583 39.8125 11.5152 37.9098C11.4436 34.7204 11.5606 31.5271 11.3019 28.3408C11.1941 27.0133 11.7539 26.3564 13.0799 26.2456C14.7824 26.1023 16.4933 26.0569 18.1982 25.9337C20.7585 25.7489 23.3157 25.5318 25.8745 25.3331C26.9109 25.253 27.9489 25.1876 29.1247 25.1052C28.8575 25.6673 28.4848 25.6881 28.1137 25.7027C25.5811 25.8036 23.0993 26.3172 20.5975 26.6614C18.711 26.9209 16.8214 27.1465 14.9317 27.3752C13.8299 27.5084 13.6019 27.7625 13.5888 28.8659C13.5603 31.2784 13.5858 33.6932 13.5072 36.1041C13.4194 38.7868 13.6189 41.4634 13.5665 44.1438C13.5642 44.2524 13.6273 44.6621 13.8052 44.562C13.8845 44.5173 13.7952 44.2863 13.7952 44.1954C13.7952 42.6677 13.7952 41.1354 13.7952 39.5237C16.6281 40.7535 19.5249 40.4093 22.3447 40.6772C26.137 41.0384 29.9325 41.381 33.6701 42.1711C35.1532 42.4845 36.6455 42.7809 38.1693 42.7609C38.7176 42.754 39.1111 42.7509 39.2497 43.2991C39.2758 43.4031 39.2443 43.7065 39.4021 43.7065C39.5138 43.7065 39.4799 43.4377 39.4837 43.3761C39.5592 41.9516 39.4991 40.5956 39.5477 39.2288C39.6562 36.1973 39.8087 33.1665 39.7871 30.1295C39.7771 28.7504 40.0659 28.3839 41.4943 28.0551C43.3485 27.6277 45.2227 27.2828 47.0969 26.9486C49.3569 26.5451 51.6177 26.157 53.833 25.541C54.4575 25.367 55.1028 25.3308 55.822 25.6842C55.3623 26.12 54.8926 26.1532 54.4567 26.2379C51.3643 26.8354 48.2681 27.4137 45.1773 28.0166C44.5304 28.1429 43.889 28.3169 43.2622 28.521C42.774 28.6796 42.2381 28.8875 42.1911 29.4411C42.1865 29.4973 42.1873 29.5697 42.2412 29.6044C42.2912 29.6367 42.3713 29.562 42.4067 29.5174C42.8888 28.9167 43.6187 28.7343 44.311 28.5864C46.782 28.0582 49.2483 27.4999 51.7517 27.1288C52.6734 26.9925 53.5828 26.7692 54.4952 26.5728C54.8009 26.5066 55.1012 26.4666 55.4177 26.4696C55.9121 26.4743 56.1408 26.6976 56.1138 27.1781C56.0545 28.2253 56.1223 29.2787 55.9521 30.3213C55.5579 32.7407 55.1967 35.1585 55.3492 37.6295Z" fill="#425471" stroke="#425471" stroke-width="0.5"/>
<path d="M41.053 16.9036C41.9231 16.9876 42.0956 16.9529 42.5145 16.9075C42.6408 16.8936 43.0874 16.9483 43.0689 16.7627C43.0558 16.6318 42.6801 16.6819 42.5522 16.6896C42.0448 16.7204 41.6213 16.6364 41.0646 16.6942C40.9791 16.7026 40.7173 16.6903 40.7173 16.8051C40.7173 16.9421 40.966 16.8952 41.053 16.9036Z" fill="#425471" stroke="#425471" stroke-width="0.5"/>
<path d="M42.2088 29.8042C41.9662 29.8042 41.9385 30.2077 41.9223 30.3224C41.8615 30.7575 41.8292 30.9685 41.8322 31.6338C41.8322 31.7246 41.8823 32.1474 41.9862 32.1327C42.1495 32.1104 42.1441 31.7061 42.1495 31.6153C42.1795 31.1448 42.1549 30.7344 42.2604 30.2677C42.2796 30.1815 42.3397 29.8042 42.2088 29.8042Z" fill="#425471" stroke="#425471" stroke-width="0.5"/>
</svg>
