<svg width="68" height="68" viewBox="0 0 68 68" fill="none" xmlns="http://www.w3.org/2000/svg">
<circle cx="34" cy="34" r="33" stroke="#DDDDDD" stroke-width="1.5"/>
<path d="M22.0888 43.3175C22.0414 45.6866 22.054 48.0573 22.0122 50.4264C21.9995 51.1585 21.7405 51.4207 21.1782 51.4467C20.6009 51.4728 20.3711 51.2367 20.3222 50.4707C20.2551 49.4267 20.1966 48.3803 20.1785 47.3347C20.1105 43.3815 20.0632 39.4282 20.0016 35.4749C19.9676 33.2771 20.4762 32.7022 22.6889 32.3682C25.565 31.9338 28.4341 31.4474 31.3133 31.0375C31.9735 30.9436 32.2776 30.6758 32.3573 30.0401C32.4932 28.9653 32.6377 27.8905 32.8209 26.8229C33.1755 24.7609 33.5656 22.7045 33.9296 20.6442C34.1855 19.1943 34.4279 17.7428 34.6656 16.2897C34.7723 15.6382 35.1363 15.2521 35.7752 15.1028C38.5455 14.456 41.3774 14.257 44.1966 14.0162C45.6552 13.8914 46.1401 14.4829 46.0485 15.9952C45.9308 17.93 45.7437 19.8608 45.5762 21.7932C45.3685 24.19 45.138 26.5844 44.9413 28.9819C44.8173 30.4903 44.6594 32.0018 44.6523 33.5133C44.6349 37.3236 45.1885 41.096 45.5146 44.8835C45.6276 46.1983 45.7381 47.5148 45.8068 48.8328C45.8518 49.7031 45.3275 50.0166 44.5307 49.6778C44.1587 49.5198 44.0189 49.2577 43.9644 48.8786C43.722 47.1878 43.4543 45.501 43.2095 43.8103C42.926 41.8518 42.6685 39.8894 42.3771 37.9325C42.2587 37.1396 42.1592 37.0709 41.3845 37.2991C39.5239 37.8472 37.6792 38.4497 35.8155 38.9875C35.2176 39.1605 35.0494 39.4874 35.0344 40.0765C34.9894 41.8589 35.0463 43.6405 34.9547 45.4268C34.8188 48.0936 34.9089 50.7723 34.9002 53.4463C34.8994 53.7171 34.9105 53.9959 34.8568 54.2581C34.7399 54.8314 34.2337 55.1299 33.5253 55.1355C32.8588 55.141 32.7917 54.6861 32.7569 54.1997C32.6748 53.0388 32.5958 51.8779 32.5247 50.7163C32.3076 47.191 32.0936 43.6657 31.8843 40.1405C31.8788 40.0457 31.8472 39.8941 31.9056 39.7907C31.9309 39.7448 31.9791 39.7069 32.0509 39.7046C32.1228 39.7022 32.1402 39.7756 32.1457 39.8349C32.2618 41.115 32.3976 42.3572 32.4734 43.6034C32.6732 46.8577 32.8414 50.1137 33.0278 53.3681C33.0436 53.6374 33.1107 53.9043 33.1431 54.1728C33.211 54.7406 33.5735 54.7319 33.9936 54.6166C34.604 54.4492 34.5503 53.947 34.5543 53.4834C34.5788 50.5323 34.6009 47.5811 34.6214 44.6292C34.6309 43.1919 34.6309 41.7547 34.6443 40.3182C34.6491 39.838 34.5456 39.5451 33.966 39.4542C31.0527 38.9978 28.1506 38.4718 25.2381 38.0122C24.3039 37.8646 23.3847 37.5605 22.3612 37.6261C22.2601 37.6324 22.1764 37.7161 22.1669 37.8172C21.9916 39.7069 22.1251 41.5138 22.0888 43.3175ZM44.6318 28.5168C45.0124 24.5848 45.2596 20.6402 45.7326 16.717C45.7697 16.4098 45.7816 16.0978 45.7863 15.7883C45.8021 14.7127 45.5281 14.4489 44.413 14.3905C43.4061 14.3376 42.419 14.5247 41.4263 14.6274C39.9125 14.7846 38.4057 15.0009 36.9021 15.2371C35.1782 15.5079 35.2082 15.5316 34.8552 17.1853C34.4824 18.9313 34.4429 20.7279 33.9904 22.4613C33.3326 24.9813 33.2078 27.5889 32.7648 30.1444C32.644 30.8393 32.7095 30.9278 33.4827 30.957C34.7146 31.0028 35.9434 31.1189 37.1698 31.2444C38.4886 31.3795 39.8153 31.4813 41.131 31.6551C42.1331 31.7878 43.1226 31.9749 44.0829 32.7938C44.1232 32.8278 44.1848 32.8041 44.1903 32.752C44.3538 31.1907 44.5022 29.8545 44.6318 28.5168ZM22.2056 33.7352C25.5264 34.2477 28.8487 34.7484 32.167 35.2735C33.1431 35.4283 34.1381 35.3817 35.0976 35.1456C37.736 34.4957 40.3863 33.8947 43.031 33.2716C43.1779 33.2369 43.3501 33.2258 43.4417 33.1334C43.7031 32.872 43.3279 32.6691 43.1218 32.5846C42.5493 32.3484 41.9815 32.1115 41.345 32.0547C38.4096 31.7917 35.4798 31.4584 32.5413 31.2531C31.6111 31.1884 30.6389 31.5264 29.6984 31.6243C27.4714 31.8572 25.2476 32.1858 23.0498 32.6146C22.347 32.752 21.8542 32.8625 21.1845 33.1595C21.0613 33.214 21.0479 33.3877 21.1648 33.4548C21.5289 33.6657 21.874 33.6838 22.2056 33.7352ZM33.4598 36.65C33.4455 36.004 33.256 35.8121 32.6803 35.7292C31.0693 35.497 29.4654 35.2151 27.8568 34.9655C25.7862 34.6441 23.7148 34.3298 21.6426 34.0218C20.5354 33.8576 20.4501 33.9555 20.3925 35.1337C20.3806 35.3778 20.3806 35.6249 20.4019 35.8682C20.4714 36.6666 20.6396 36.8332 21.4902 36.9817C23.4005 37.3141 25.3131 37.6316 27.225 37.9554C28.8305 38.227 30.4375 38.4908 32.0407 38.7727C33.2994 38.9938 33.4566 38.8722 33.4732 37.5803C33.4756 37.465 33.47 37.127 33.4598 36.65ZM33.7543 38.4095C33.8309 39.1004 33.9667 39.1952 34.657 38.9859C37.6239 38.0904 40.5853 37.1751 43.5546 36.2883C44.0987 36.1256 44.2724 35.8666 44.2108 35.2798C44.0166 33.4248 43.9684 33.3837 42.1979 33.8165C39.7514 34.4135 37.2969 34.9805 34.8441 35.5523C33.7598 35.805 33.7575 35.7971 33.729 36.8987C33.7251 37.0535 33.7164 38.0636 33.7543 38.4095ZM44.7621 40.7975C44.6562 39.6414 44.5551 38.4853 44.4462 37.3291C44.4106 36.9501 44.4462 36.5126 43.8365 36.5734C43.0452 36.6524 42.5619 36.9651 42.5919 37.5037C42.6243 38.0786 42.7538 38.6487 42.8517 39.2189C43.3627 42.1969 43.8128 45.1844 44.2014 48.1805C44.2211 48.3345 44.2243 48.4916 44.259 48.6417C44.3617 49.0855 44.5394 49.4993 45.0969 49.3864C45.6394 49.2766 45.4491 48.7838 45.4807 48.6527C45.2272 45.8872 44.9942 43.342 44.7621 40.7975ZM20.4027 40.1168C20.4604 43.3301 20.567 46.5419 20.6586 49.7544C20.6673 50.0632 20.6839 50.3743 20.7368 50.6776C20.7731 50.886 20.9532 50.9911 21.1648 50.9974C21.3764 51.0037 21.5597 50.9066 21.6134 50.7036C21.6813 50.4454 21.7263 50.1729 21.7279 49.9068C21.7547 46.0736 21.7745 42.2403 21.7918 38.4071C21.7958 37.4776 21.7492 37.3986 20.6381 37.2691C20.5465 37.2581 20.4572 37.3189 20.4383 37.4097C20.2495 38.306 20.3869 39.2181 20.4027 40.1168Z" fill="#425471" stroke="#425471" stroke-width="0.5"/>
</svg>
