<svg width="69" height="69" viewBox="0 0 69 69" fill="none"
  xmlns="http://www.w3.org/2000/svg">
  <path d="M34.6534 68.5695C53.4781 68.5695 68.7385 53.3091 68.7385 34.4845C68.7385 15.6598 53.4781 0.399414 34.6534 0.399414C15.8288 0.399414 0.568359 15.6598 0.568359 34.4845C0.568359 53.3091 15.8288 68.5695 34.6534 68.5695Z" fill="#F6BEA5"/>
  <path d="M18.4883 52.552C18.3712 52.5509 18.2577 52.5116 18.1649 52.4401C18.0721 52.3686 18.0052 52.2688 17.9742 52.1558C17.9433 52.0428 17.95 51.9229 17.9934 51.8141C18.0368 51.7052 18.1144 51.6135 18.2146 51.5528C27.6848 45.9787 35.7386 38.2913 41.7471 29.0906C41.7829 29.0257 41.8316 28.9691 41.8904 28.9239C41.9491 28.8788 42.0166 28.8463 42.0885 28.8284C42.1604 28.8106 42.2352 28.8077 42.3083 28.82C42.3813 28.8324 42.4509 28.8596 42.5129 28.9002C42.5749 28.9407 42.628 28.9936 42.6687 29.0556C42.7093 29.1175 42.7367 29.1871 42.7492 29.2601C42.7617 29.3331 42.7591 29.408 42.7414 29.4799C42.7237 29.5518 42.6912 29.6193 42.6462 29.6781C36.5572 39.0274 28.3792 46.834 18.7572 52.4821C18.6755 52.5291 18.5826 52.5532 18.4883 52.552V52.552Z" fill="#474748" stroke="#221F1F" stroke-width="0.718" stroke-miterlimit="10"/>
  <path d="M24.4155 45.0081C24.3447 45.0082 24.2745 44.9944 24.2091 44.9674C24.1436 44.9404 24.0842 44.9007 24.0341 44.8506C23.9839 44.8006 23.9442 44.7413 23.9171 44.6759C23.89 44.6105 23.876 44.5403 23.876 44.4695C23.876 40.8124 26.313 37.6239 28.6721 34.5403C30.7155 31.8654 32.6459 29.3444 33.0446 26.6086C33.06 26.5038 33.106 26.4058 33.1767 26.327C33.2474 26.2481 33.3398 26.1918 33.4423 26.1651C33.5448 26.1384 33.6529 26.1423 33.7532 26.1766C33.8534 26.2108 33.9413 26.2739 34.0059 26.3578C34.4142 26.8905 34.7955 27.4434 35.1481 28.0145C35.7243 26.6772 36.44 25.4046 37.2833 24.2175C39.6655 20.8972 42.67 19.1426 45.9764 19.1426C48.2246 19.1426 49.7834 19.9049 50.6078 21.4097C51.2021 22.7248 51.4624 24.1665 51.3652 25.6065C51.3739 28.0052 50.7714 30.3666 49.6145 32.468C48.6247 34.2366 47.3306 35.8166 45.7916 37.1353C44.1371 38.5888 42.267 39.7767 40.248 40.6566C40.1818 40.6864 40.1101 40.7025 40.0375 40.7039C39.9649 40.7053 39.8928 40.6919 39.8254 40.6647C39.758 40.6376 39.6968 40.597 39.6455 40.5456C39.5942 40.4941 39.5539 40.4329 39.5269 40.3654C39.5 40.298 39.4869 40.2257 39.4885 40.1531C39.4902 40.0804 39.5065 40.0089 39.5366 39.9428C39.5666 39.8766 39.6097 39.8173 39.6633 39.7682C39.7169 39.7192 39.7798 39.6815 39.8483 39.6574C41.7613 38.8129 43.5345 37.6821 45.1071 36.3039C46.7077 35.0161 48.0025 33.389 48.8981 31.5401C49.7936 29.6913 50.2677 27.6667 50.286 25.6124C50.286 22.7727 49.9563 20.2236 45.9754 20.2236C42.9928 20.2236 40.3639 21.7794 38.1617 24.849C37.1327 26.2961 36.3079 27.8782 35.7106 29.5504C35.6734 29.6647 35.599 29.7633 35.4994 29.8305C35.3997 29.8978 35.2803 29.9298 35.1604 29.9215C35.0404 29.9133 34.9268 29.8652 34.8373 29.7849C34.7478 29.7046 34.6876 29.5968 34.6664 29.4784C34.4675 28.9417 34.1915 28.4368 33.8471 27.9796C33.1027 30.5216 31.291 32.8917 29.5314 35.1948C27.2832 38.1355 24.9591 41.1771 24.9591 44.4695C24.9591 44.5406 24.945 44.6112 24.9176 44.6768C24.8903 44.7425 24.8501 44.802 24.7996 44.8521C24.749 44.9022 24.6891 44.9418 24.6232 44.9686C24.5573 44.9954 24.4866 45.0088 24.4155 45.0081Z" fill="#474748" stroke="#221F1F" stroke-width="0.718" stroke-miterlimit="10"/>
  <path d="M26.0335 49.8583C25.9132 49.8581 25.7964 49.8176 25.7017 49.7433C25.6071 49.6691 25.5399 49.5653 25.511 49.4485C25.482 49.3317 25.4929 49.2086 25.542 49.0987C25.591 48.9888 25.6755 48.8986 25.7818 48.8422C27.2108 48.2355 28.7356 47.8854 30.2861 47.808C33.7224 47.4083 37.5804 46.9506 40.4641 42.703C39.5577 42.8337 38.6416 42.8842 37.7263 42.8539H37.3496C37.2107 42.8479 37.0793 42.7884 36.9831 42.688C36.8869 42.5875 36.8332 42.4538 36.8332 42.3147C36.8332 42.1757 36.8869 42.0419 36.9831 41.9415C37.0793 41.8411 37.2107 41.7817 37.3496 41.7757H37.7303C38.9832 41.8789 40.2436 41.7133 41.4274 41.29C41.5302 41.2398 41.6464 41.2236 41.759 41.2438C41.8716 41.264 41.9749 41.3195 42.0538 41.4024C42.1328 41.4852 42.1832 41.591 42.198 41.7045C42.2127 41.818 42.1909 41.9332 42.1358 42.0335C38.9313 47.8779 34.2091 48.4284 30.4151 48.878C28.9965 48.9441 27.6001 49.2548 26.2873 49.7964C26.2091 49.8375 26.1219 49.8588 26.0335 49.8583V49.8583Z" fill="#474748" stroke="#221F1F" stroke-width="0.718" stroke-miterlimit="10"/>
  <path d="M21.7215 48.2415C21.6148 48.242 21.5102 48.2103 21.4217 48.1506C21.3029 48.0713 21.2203 47.948 21.1922 47.8079C21.1641 47.6677 21.1927 47.5222 21.2718 47.4031C21.7113 46.7717 21.8979 45.9983 21.7945 45.2359C21.7156 44.1704 21.8867 43.1011 22.2941 42.1134C22.3182 42.0448 22.3559 41.9818 22.405 41.9282C22.454 41.8746 22.5134 41.8316 22.5795 41.8016C22.6457 41.7716 22.7172 41.7552 22.7898 41.7536C22.8624 41.7519 22.9347 41.765 23.0021 41.792C23.0696 41.819 23.1308 41.8593 23.1823 41.9105C23.2337 41.9618 23.2743 42.023 23.3015 42.0903C23.3287 42.1577 23.342 42.2299 23.3406 42.3026C23.3392 42.3752 23.3231 42.4467 23.2933 42.513C22.9392 43.3612 22.7929 44.2817 22.8666 45.1979C22.9782 46.1858 22.7298 47.181 22.1671 48.0007C22.1183 48.0744 22.0521 48.1348 21.9744 48.1768C21.8967 48.2188 21.8099 48.241 21.7215 48.2415V48.2415Z" fill="#474748" stroke="#221F1F" stroke-width="0.718" stroke-miterlimit="10"/>
</svg>