<svg width="70" height="69" viewBox="0 0 70 69" fill="none"
  xmlns="http://www.w3.org/2000/svg">
  <path d="M35.1593 68.5695C53.9839 68.5695 69.2443 53.3091 69.2443 34.4845C69.2443 15.6598 53.9839 0.399414 35.1593 0.399414C16.3346 0.399414 1.07422 15.6598 1.07422 34.4845C1.07422 53.3091 16.3346 68.5695 35.1593 68.5695Z" fill="#F6BEA5"/>
  <path d="M34.9151 68.5695C53.7398 68.5695 69.0002 53.3091 69.0002 34.4845C69.0002 15.6598 53.7398 0.399414 34.9151 0.399414C16.0905 0.399414 0.830078 15.6598 0.830078 34.4845C0.830078 53.3091 16.0905 68.5695 34.9151 68.5695Z" fill="#F6BEA5"/>
  <path d="M35.6149 42.9627C35.6149 42.9627 41.6531 38.3094 43.6785 35.3147C44.3894 34.2446 44.6531 32.9387 44.4133 31.6766C44.1734 30.4145 43.449 29.2965 42.3951 28.5618C41.3412 27.8271 40.0415 27.5341 38.7743 27.7455C37.5072 27.957 36.3731 28.6561 35.6149 29.6932C34.8652 28.6581 33.742 27.9555 32.4832 27.7341C31.2244 27.5127 29.9288 27.7898 28.8709 28.507C27.8129 29.2242 27.0757 30.3249 26.8152 31.5762C26.5547 32.8275 26.7915 34.1311 27.4754 35.2108C29.4788 38.759 35.6149 42.9627 35.6149 42.9627Z" stroke="#091821" stroke-width="1.508" stroke-linejoin="round"/>
  <path d="M22.1609 37.499L16.7652 31.2739L11.2695 37.497L22.1609 37.499Z" stroke="#091821" stroke-width="1.508" stroke-linejoin="round"/>
  <path d="M59.0417 31.2749L53.646 37.5L48.1504 31.2769L59.0417 31.2749Z" stroke="#091821" stroke-width="1.508" stroke-linejoin="round"/>
  <path d="M17.3818 28.7477C18.6655 24.7643 21.2464 21.3257 24.7129 18.9807C28.1793 16.6358 32.3314 15.5196 36.5064 15.8104C40.6814 16.1012 44.6387 17.782 47.7466 20.5848C50.8546 23.3877 52.9341 27.1509 53.6531 31.2738" stroke="#091821" stroke-width="1.508" stroke-miterlimit="10"/>
  <path d="M53.1017 40.0321C51.8529 44.0648 49.278 47.5573 45.7948 49.9428C42.3117 52.3283 38.1246 53.4667 33.9131 53.1735C29.7016 52.8803 25.7127 51.1727 22.5936 48.3276C19.4746 45.4825 17.4085 41.6669 16.7305 37.5" stroke="#091821" stroke-width="1.508" stroke-miterlimit="10"/>
</svg>