<svg width="64" height="39" viewBox="0 0 64 39" fill="none" xmlns="http://www.w3.org/2000/svg">
<path d="M8.11456 11.2656V2.0164C8.11456 1.40656 8.52112 1 9.13096 1H45.7212C46.3311 1 46.7376 1.40656 46.7376 2.0164V31.4919H9.13096C8.52112 31.4919 8.11456 31.0853 8.11456 30.4755V24.987" fill="white"/>
<path d="M8.11456 11.2656V2.0164C8.11456 1.40656 8.52112 1 9.13096 1H45.7212C46.3311 1 46.7376 1.40656 46.7376 2.0164V31.4919H9.13096C8.52112 31.4919 8.11456 31.0853 8.11456 30.4755V24.987" stroke="#435570" stroke-width="0.75" stroke-miterlimit="10" stroke-linecap="round" stroke-linejoin="round"/>
<path d="M56.902 9.13126H46.738V5.06567H55.3774C56.1905 5.06567 56.902 5.77715 56.902 6.59027V9.13126Z" fill="white" stroke="#435570" stroke-width="0.75" stroke-miterlimit="10"/>
<path d="M58.9348 17.2623H46.738V9.1311H56.902L58.9348 17.2623Z" fill="white" stroke="#435570" stroke-width="0.75" stroke-miterlimit="10"/>
<path d="M61.9839 31.492H46.738V17.2625H59.9512C61.679 17.2625 63.0003 18.5838 63.0003 20.3116V30.4756C63.0003 31.0854 62.5938 31.492 61.9839 31.492Z" fill="white" stroke="#435570" stroke-width="0.75" stroke-miterlimit="10"/>
<path d="M61.9837 24.3771H57.9181C57.3082 24.3771 56.9017 23.9705 56.9017 23.3607V22.3443C56.9017 21.7344 57.3082 21.3279 57.9181 21.3279H61.9837C62.5935 21.3279 63.0001 21.7344 63.0001 22.3443V23.3607C63.0001 23.9705 62.5935 24.3771 61.9837 24.3771Z" fill="white" stroke="#435570" stroke-width="0.75" stroke-miterlimit="10"/>
<path d="M20.3115 38.6067C23.1182 38.6067 25.3935 36.3314 25.3935 33.5247C25.3935 30.718 23.1182 28.4427 20.3115 28.4427C17.5048 28.4427 15.2296 30.718 15.2296 33.5247C15.2296 36.3314 17.5048 38.6067 20.3115 38.6067Z" fill="white" stroke="#435570" stroke-width="0.75" stroke-miterlimit="10"/>
<path d="M53.8524 38.6067C56.6591 38.6067 58.9344 36.3314 58.9344 33.5247C58.9344 30.718 56.6591 28.4427 53.8524 28.4427C51.0457 28.4427 48.7704 30.718 48.7704 33.5247C48.7704 36.3314 51.0457 38.6067 53.8524 38.6067Z" fill="white" stroke="#435570" stroke-width="0.75" stroke-miterlimit="10"/>
<path d="M22.3442 15.2296H6.08184C5.472 15.2296 5.06544 14.823 5.06544 14.2132C5.06544 13.6033 5.472 13.1968 6.08184 13.1968H22.3442C22.954 13.1968 23.3606 13.6033 23.3606 14.2132C23.3606 14.823 22.954 15.2296 22.3442 15.2296Z" fill="white" stroke="#435570" stroke-width="0.75" stroke-miterlimit="10"/>
<path d="M18.2787 19.2952H2.0164C1.40656 19.2952 1 18.8887 1 18.2788C1 17.669 1.40656 17.2625 2.0164 17.2625H18.2787C18.8886 17.2625 19.2951 17.669 19.2951 18.2788C19.2951 18.8887 18.8886 19.2952 18.2787 19.2952Z" fill="white" stroke="#435570" stroke-width="0.75" stroke-miterlimit="10"/>
<path d="M27.4263 23.3607H5.06553C4.45569 23.3607 4.04913 22.9541 4.04913 22.3443C4.04913 21.7344 4.45569 21.3279 5.06553 21.3279H27.4263C28.0361 21.3279 28.4426 21.7344 28.4426 22.3443C28.4426 22.9541 28.0361 23.3607 27.4263 23.3607Z" fill="white" stroke="#435570" stroke-width="0.75" stroke-miterlimit="10"/>
<path d="M35.5572 23.3607H32.508C31.8982 23.3607 31.4916 22.9541 31.4916 22.3443C31.4916 21.7344 31.8982 21.3279 32.508 21.3279H35.5572C36.167 21.3279 36.5736 21.7344 36.5736 22.3443C36.5736 22.9541 36.167 23.3607 35.5572 23.3607Z" fill="white" stroke="#435570" stroke-width="0.75" stroke-miterlimit="10"/>
</svg>
