<svg width="50" height="50" viewBox="0 0 50 50" fill="none" xmlns="http://www.w3.org/2000/svg">
<circle cx="25" cy="25" r="24" fill="white" stroke="#DDDDDD" stroke-width="1.5"/>
<path d="M15.5477 30.1688C15.5132 31.7986 15.5224 33.4295 15.4919 35.0593C15.4828 35.5629 15.2944 35.7433 14.8855 35.7612C14.4656 35.7792 14.2985 35.6167 14.2629 35.0897C14.2141 34.3715 14.1716 33.6517 14.1583 32.9324C14.109 30.2128 14.0745 27.4931 14.0297 24.7735C14.005 23.2616 14.3749 22.8661 15.9842 22.6363C18.0759 22.3375 20.1624 22.0028 22.2564 21.7209C22.7366 21.6562 22.9577 21.472 23.0157 21.0347C23.1145 20.2953 23.2196 19.5559 23.3528 18.8214C23.6107 17.4029 23.8944 15.9882 24.1592 14.5708C24.3453 13.5734 24.5216 12.5748 24.6945 11.5752C24.772 11.127 25.0368 10.8613 25.5014 10.7587C27.5162 10.3137 29.5757 10.1768 31.6261 10.0111C32.6869 9.92529 33.0395 10.3322 32.9729 11.3726C32.8873 12.7036 32.7512 14.0319 32.6295 15.3613C32.4784 17.0101 32.3107 18.6573 32.1677 20.3067C32.0775 21.3444 31.9627 22.3842 31.9575 23.424C31.9449 26.0453 32.3475 28.6405 32.5847 31.2461C32.6668 32.1506 32.7472 33.0563 32.7972 33.963C32.8299 34.5617 32.4485 34.7774 31.869 34.5443C31.5985 34.4356 31.4969 34.2553 31.4572 33.9945C31.2809 32.8313 31.0862 31.6709 30.9082 30.5078C30.702 29.1604 30.5148 27.8104 30.3028 26.4642C30.2167 25.9187 30.1443 25.8715 29.5809 26.0285C28.2278 26.4055 26.8861 26.82 25.5307 27.19C25.0959 27.309 24.9736 27.5339 24.9627 27.9392C24.93 29.1653 24.9713 30.391 24.9047 31.6198C24.8059 33.4545 24.8714 35.2973 24.8651 37.1368C24.8645 37.3231 24.8725 37.5149 24.8335 37.6953C24.7485 38.0897 24.3803 38.2951 23.8651 38.2989C23.3804 38.3027 23.3316 37.9897 23.3063 37.6551C23.2466 36.8565 23.1892 36.0578 23.1375 35.2587C22.9795 32.8335 22.8239 30.4083 22.6717 27.9832C22.6677 27.918 22.6447 27.8137 22.6872 27.7425C22.7056 27.711 22.7406 27.6849 22.7929 27.6833C22.8451 27.6817 22.8578 27.7322 22.8618 27.7729C22.9462 28.6536 23.045 29.5081 23.1001 30.3654C23.2454 32.6043 23.3678 34.8442 23.5033 37.083C23.5148 37.2683 23.5636 37.4519 23.5872 37.6366C23.6366 38.0272 23.9002 38.0212 24.2057 37.9419C24.6497 37.8268 24.6106 37.4812 24.6135 37.1623C24.6313 35.1321 24.6474 33.1019 24.6623 31.0711C24.6692 30.0824 24.6692 29.0936 24.679 28.1054C24.6824 27.7751 24.6072 27.5735 24.1856 27.5111C22.0669 27.1971 19.9562 26.8352 17.8381 26.519C17.1587 26.4175 16.4901 26.2083 15.7458 26.2534C15.6723 26.2577 15.6114 26.3153 15.6045 26.3849C15.477 27.6849 15.5741 28.9279 15.5477 30.1688ZM31.9426 19.9867C32.2194 17.2818 32.3992 14.5681 32.7432 11.8691C32.7702 11.6578 32.7788 11.4432 32.7822 11.2302C32.7937 10.4903 32.5944 10.3088 31.7835 10.2686C31.0512 10.2322 30.3333 10.361 29.6113 10.4316C28.5103 10.5397 27.4145 10.6886 26.321 10.851C25.0672 11.0374 25.089 11.0537 24.8323 12.1913C24.5612 13.3925 24.5325 14.6284 24.2034 15.8209C23.725 17.5545 23.6343 19.3484 23.3121 21.1064C23.2242 21.5845 23.2719 21.6453 23.8341 21.6654C24.7301 21.6969 25.6238 21.7768 26.5157 21.8632C27.4748 21.9561 28.4397 22.0262 29.3965 22.1457C30.1254 22.237 30.845 22.3657 31.5434 22.9291C31.5727 22.9525 31.6175 22.9362 31.6215 22.9003C31.7404 21.8262 31.8484 20.907 31.9426 19.9867ZM15.6327 23.5767C18.0477 23.9293 20.4639 24.2737 22.8773 24.635C23.5872 24.7415 24.3108 24.7094 25.0086 24.547C26.9275 24.0998 28.8549 23.6864 30.7784 23.2578C30.8852 23.2339 31.0104 23.2263 31.077 23.1627C31.2671 22.9829 30.9943 22.8433 30.8444 22.7851C30.428 22.6227 30.0151 22.4597 29.5522 22.4206C27.4174 22.2397 25.2866 22.0104 23.1495 21.8692C22.473 21.8246 21.766 22.0571 21.0819 22.1245C19.4623 22.2848 17.845 22.5108 16.2466 22.8058C15.7355 22.9003 15.3771 22.9764 14.89 23.1806C14.8005 23.2181 14.7907 23.3376 14.8757 23.3838C15.1405 23.5289 15.3914 23.5414 15.6327 23.5767ZM23.8175 25.5819C23.8071 25.1375 23.6693 25.0055 23.2506 24.9484C22.079 24.7887 20.9125 24.5948 19.7426 24.4231C18.2367 24.202 16.7302 23.9858 15.2232 23.7739C14.4179 23.6609 14.3559 23.7282 14.314 24.5388C14.3054 24.7067 14.3054 24.8767 14.3209 25.0441C14.3714 25.5933 14.4938 25.7079 15.1123 25.8101C16.5016 26.0388 17.8927 26.2572 19.2831 26.4799C20.4507 26.6668 21.6195 26.8483 22.7854 27.0422C23.7009 27.1943 23.8152 27.1107 23.8272 26.2219C23.829 26.1426 23.8249 25.91 23.8175 25.5819ZM24.0317 26.7923C24.0874 27.2677 24.1862 27.3329 24.6882 27.1889C26.8459 26.5728 28.9997 25.9432 31.1592 25.3331C31.5549 25.2212 31.6812 25.043 31.6364 24.6393C31.4952 23.3632 31.4601 23.3349 30.1725 23.6326C28.3932 24.0433 26.6082 24.4334 24.8243 24.8267C24.0357 25.0006 24.034 24.9952 24.0133 25.753C24.0105 25.8595 24.0041 26.5544 24.0317 26.7923ZM32.0373 28.4352C31.9604 27.6398 31.8869 26.8445 31.8076 26.0491C31.7817 25.7883 31.8076 25.4874 31.3642 25.5292C30.7887 25.5835 30.4372 25.7987 30.4591 26.1692C30.4826 26.5647 30.5768 26.9569 30.648 27.3492C31.0196 29.3979 31.347 31.4531 31.6295 33.5142C31.6439 33.6202 31.6462 33.7283 31.6715 33.8315C31.7461 34.1368 31.8754 34.4215 32.2808 34.3438C32.6754 34.2683 32.537 33.9293 32.56 33.8391C32.3756 31.9366 32.2062 30.1856 32.0373 28.4352ZM14.3215 27.9669C14.3634 30.1775 14.4409 32.3869 14.5075 34.597C14.5139 34.8094 14.5259 35.0235 14.5644 35.2321C14.5908 35.3755 14.7218 35.4478 14.8757 35.4521C15.0296 35.4564 15.1629 35.3896 15.2019 35.25C15.2513 35.0724 15.284 34.8849 15.2852 34.7018C15.3047 32.0648 15.3191 29.4277 15.3317 26.7907C15.3346 26.1512 15.3007 26.0969 14.4926 26.0078C14.426 26.0002 14.3611 26.0421 14.3473 26.1045C14.21 26.7211 14.31 27.3486 14.3215 27.9669Z" fill="#425471" stroke="#425471" stroke-width="0.5"/>
</svg>
