<svg width="50" height="50" viewBox="0 0 50 50" fill="none" xmlns="http://www.w3.org/2000/svg">
<circle cx="25" cy="25" r="24" fill="white" stroke="#DDDDDD" stroke-width="1.5"/>
<path d="M41.7952 21.1251C41.7862 20.7702 41.8327 20.3496 41.5543 20.1393C40.8695 19.6207 40.9955 18.957 41.0991 18.3155C41.2357 17.4658 41.2049 16.6087 41.3191 15.759C41.397 15.1795 41.2172 15.0121 40.5978 14.9331C40.4668 14.9162 40.0182 14.9045 39.9942 15.0852C39.8177 16.4259 39.6593 17.6448 39.4806 18.9856C39.456 19.171 39.405 19.3532 39.3781 19.5381C39.3356 19.831 39.2017 20.027 38.868 20.0932C38.4082 20.1849 37.9708 20.3968 37.4198 20.3279C37.4226 19.7383 37.5643 19.2017 37.7597 18.6804C38.122 17.7174 38.2643 16.7083 38.4928 15.7171C38.6316 15.1143 38.4558 14.5056 38.4132 13.906C38.8523 13.7624 39.0976 14.0072 39.3535 14.2069C39.5237 14.3398 39.6968 14.5088 39.7959 14.6958C39.8485 14.7954 39.9566 14.9268 40.0261 14.8902C40.0854 14.8584 39.9835 14.6487 39.9482 14.5846C39.5333 13.8345 38.7952 13.4616 37.8258 13.5797C36.5915 13.7296 35.3539 13.8186 34.1135 13.9023C33.6929 13.9309 33.2533 13.8795 32.8282 13.9627C32.7353 13.9812 32.5079 13.9727 32.4872 14.0633C32.4564 14.1973 32.7319 14.1809 32.8383 14.1751C34.3335 14.0914 35.8327 14.076 37.3184 13.852C37.9607 13.755 38.1971 13.9521 38.3007 14.5613C38.378 15.0179 38.2979 15.4671 38.1988 15.9147C37.9154 17.1983 37.5379 18.459 37.198 19.7293C36.979 20.5462 37.0205 20.543 36.0976 20.66C34.3856 20.8772 32.7196 21.3095 31.0188 21.5738C30.7724 21.612 30.5389 21.7285 30.302 21.8154C29.7711 22.0103 29.4889 22.3557 29.5051 22.9183C29.518 23.3452 29.4794 23.7738 29.4648 24.2018C29.434 25.1114 29.4228 25.1363 28.4193 25.0595C26.3606 24.9016 24.2987 24.8454 22.2345 24.8327C21.4426 24.828 21.2477 24.579 21.4107 23.8151C21.7915 22.0342 22.165 20.2516 22.5643 18.4744C22.8516 17.1935 23.0219 15.8898 23.4105 14.6296C23.5964 14.0262 23.7073 13.9288 24.3625 13.9314C25.2384 13.9346 26.1148 13.9786 26.9901 14.022C27.8503 14.0644 28.7099 14.1221 29.5902 14.1767C29.7095 14.1841 29.9761 14.2116 29.9856 14.1269C30.0041 13.9643 29.5964 13.986 29.4172 13.9743C27.8951 13.8747 26.3724 13.7804 24.8492 13.6936C23.5824 13.6215 23.3265 13.8128 23.0644 14.9935C23.0527 15.046 23.0504 15.1 23.0387 15.1524C22.7519 16.4598 22.4546 17.7656 22.1841 19.0762C22.113 19.4205 21.9617 19.5863 21.5781 19.6022C20.9856 19.6265 20.3948 19.6981 19.8029 19.7394C16.5895 19.9629 13.3751 20.17 10.1634 20.4116C9.18786 20.4847 8.72641 20.9297 8.76001 21.8604C8.83953 24.0508 8.85185 26.2434 8.88937 28.4354C8.91009 29.666 8.91905 30.8971 8.94761 32.1276C8.96498 32.8624 9.12066 33.5357 10.0436 33.7094C10.4216 33.7804 10.4764 34.0034 10.4126 34.3001C10.295 34.8504 10.169 35.3992 10.0492 35.9491C10.0072 36.1419 9.92036 36.3692 10.0038 36.5604C10.0609 36.6913 10.1623 36.7548 10.2379 36.794C10.5285 36.9455 11.3495 37.2316 11.5511 36.6769C11.6726 36.3437 11.7718 35.9051 11.8726 35.4866C11.8972 35.3849 11.9644 35.1492 11.872 35.1328C11.7779 35.1158 11.6967 35.3701 11.6682 35.4549C11.5662 35.7552 11.4783 36.0852 11.4234 36.349C11.3355 36.7712 11.158 36.9031 10.7447 36.8364C10.5991 36.8131 10.3476 36.6801 10.3476 36.6801C10.3476 36.6801 10.1298 36.5609 10.1477 36.4788C10.2905 35.8246 10.4344 35.1704 10.5806 34.5167C10.7251 33.8731 10.7861 33.8281 11.3893 33.8937C11.9538 33.9552 11.9605 33.9653 11.9515 34.6248C11.951 34.673 11.9196 34.781 11.9717 34.7932C12.0607 34.8144 12.1005 34.646 12.1195 34.6078C12.432 33.9949 12.4236 34.041 13.3112 34.1687C14.1496 34.2895 14.9868 34.4139 15.8251 34.5337C19.6265 35.075 23.4267 35.6254 27.2309 36.1456C27.8004 36.2235 28.1499 36.4365 28.3705 36.9413C28.7166 37.7311 29.1019 38.5072 29.5023 39.2742C29.7532 39.7547 30.3037 39.9517 30.7864 39.7933C31.1762 39.6652 31.2406 39.4278 31.1432 38.7763C31.0418 38.0972 30.792 37.4345 30.8301 36.7395C31.1488 36.6001 31.4713 36.6303 31.7524 36.4836C32.5695 36.0577 33.4286 35.7113 34.2445 35.2785C35.5505 34.585 36.8838 33.9372 38.2122 33.2824C38.7291 33.0276 38.7688 33.0504 39.0886 33.5192C39.2874 33.8111 39.456 34.1258 39.6873 34.3917C39.8894 34.6242 40.1834 34.7991 40.506 34.5919C40.7776 34.4177 40.9154 34.1676 40.7731 33.8286C40.6275 33.4816 40.5284 33.1172 40.3934 32.766C40.2736 32.455 40.2943 32.1912 40.6062 31.991C40.8745 31.8188 41.0688 31.6111 41.0722 31.2753C41.0862 30.0198 41.3421 28.776 41.2687 27.5147C41.2407 27.0348 41.2839 26.5554 41.3421 26.0744C41.5415 24.4291 41.8372 22.7917 41.7952 21.1251ZM39.885 18.0257C39.9785 17.2327 40.0664 16.4392 40.1599 15.6462C40.1924 15.3702 40.2383 15.1101 40.6443 15.1339C41.0408 15.1567 41.0918 15.4072 41.0711 15.6912C40.9871 16.8582 40.9131 18.0262 40.7911 19.19C40.7328 19.7431 40.6874 19.7388 39.6772 19.813C39.629 19.1673 39.8166 18.602 39.885 18.0257ZM23.7902 25.0854C25.3705 25.1368 26.9492 25.248 28.5273 25.3471C29.2957 25.3953 29.3231 25.4377 29.3237 26.1634C29.3254 27.5285 29.3237 27.5518 27.8816 27.4612C25.6259 27.3198 23.3724 27.1455 21.1184 26.9818C18.0204 26.7567 14.9229 26.5289 11.6206 26.2874C12.2657 25.9166 12.8072 25.9075 13.328 25.8487C13.8606 25.7884 14.3971 25.7391 14.933 25.7317C16.9457 25.7025 18.9046 25.22 20.91 25.1177C21.8727 25.0685 22.8331 25.0542 23.7902 25.0854ZM29.1753 31.2011C29.1736 31.5878 28.9849 31.7176 28.6001 31.7033C27.6963 31.6694 26.7941 31.6376 25.9042 31.4554C22.361 30.7297 18.7736 30.3371 15.1531 30.1946C14.2801 30.1602 13.4076 30.0972 12.5373 30.0257C12.2018 29.9981 11.8726 29.9176 11.5662 29.7608C11.1065 29.5251 10.8181 29.1961 10.8309 28.6812C10.8449 28.1208 10.8505 27.5592 10.8897 27.0004C10.9138 26.6571 11.1221 26.4791 11.5136 26.5104C12.3021 26.5729 13.0917 26.6169 13.8802 26.6762C18.7814 27.0454 23.6821 27.4152 28.5833 27.7891C29.2867 27.8426 29.2862 27.8527 29.2951 28.4794C29.2957 28.5059 29.294 28.5329 29.294 28.5594C29.294 28.7999 29.294 29.0409 29.294 29.4292C29.3478 29.9271 29.1786 30.5602 29.1753 31.2011ZM21.7792 21.0213C21.5557 22.1777 21.2085 23.3135 21.1385 24.4948C21.1189 24.8237 20.8753 24.8698 20.6076 24.8841C18.829 24.9768 17.0902 25.3783 15.3105 25.4758C13.8511 25.5558 12.3749 25.5685 10.8147 26.2582C10.8147 24.757 10.8136 23.4771 10.8153 22.1968C10.8158 21.7788 11.1289 21.6581 11.485 21.6093C12.0999 21.5251 12.7159 21.4419 13.3342 21.3858C15.9511 21.1469 18.5322 20.6362 21.157 20.4561C21.8105 20.4111 21.8878 20.4582 21.7792 21.0213ZM30.9264 38.8939C30.9679 39.1047 31.053 39.3394 30.8088 39.4718C30.5199 39.6281 30.2068 39.6021 29.929 39.4241C29.8411 39.368 29.7689 39.2705 29.723 39.1773C29.285 38.2884 28.7569 37.4366 28.4075 36.3581C28.921 36.4248 29.308 36.4688 29.6922 36.526C30.4639 36.6409 30.4728 36.642 30.6223 37.32C30.7377 37.8418 30.8228 38.37 30.9264 38.8939ZM40.5312 33.8773C40.6023 34.0988 40.5284 34.3048 40.273 34.3928C40.0037 34.4855 39.8581 34.3212 39.7377 34.1295C39.638 33.9706 39.5433 33.809 39.4442 33.6501C38.9296 32.8221 38.9296 32.8221 39.9516 32.509C40.2999 32.901 40.38 33.4053 40.5312 33.8773ZM41.0123 28.4381C41.0711 29.345 40.7972 30.245 40.8476 31.1593C40.8706 31.573 40.5418 31.769 40.2137 31.9406C39.0746 32.535 37.9355 33.1294 36.7898 33.7126C35.5225 34.3583 34.2523 34.9998 32.9738 35.6265C32.5275 35.8453 32.0543 36.0148 31.5083 36.2426C31.4344 32.527 31.6393 28.9095 31.4187 25.2687C31.4131 25.1733 31.44 24.8677 31.342 24.8444C31.2333 24.8184 31.2014 25.0542 31.2053 25.2152C31.2104 25.4334 31.2188 25.6618 31.2182 25.8758C31.2087 29.0626 31.2076 32.2495 31.2014 35.4363C31.1992 36.3973 31.0452 36.5053 30.0685 36.3104C29.779 36.2526 29.6345 36.1541 29.6138 35.8463C29.5796 35.3394 29.5068 34.8356 29.5275 34.3249C29.5415 33.9812 29.5337 33.6368 29.5314 33.1956C29.5309 33.1309 29.5667 32.963 29.4967 32.9434C29.4032 32.9175 29.369 33.0319 29.336 33.1378C29.2369 33.4509 29.3052 33.7761 29.2996 34.0161C29.2884 34.4971 29.3214 34.9792 29.3293 35.4612C29.3405 36.1467 29.2923 36.1944 28.5464 36.0879C26.0006 35.7234 23.457 35.3426 20.9106 34.9808C17.5259 34.4998 14.1395 34.0309 10.7537 33.5553C10.5297 33.524 10.3034 33.4965 10.0856 33.4408C9.51267 33.2957 9.3497 33.114 9.28586 32.5546C9.1369 31.2504 9.16434 29.9398 9.13298 28.6309C9.0809 26.4367 9.16602 24.24 8.97786 22.0479C8.89945 21.1347 9.30658 20.6828 10.2709 20.6065C11.5091 20.508 12.7535 20.4768 13.9933 20.392C15.8554 20.2649 17.7152 20.1155 19.5761 19.9788C20.3299 19.9237 21.0848 19.8787 21.9399 19.822C21.7456 20.2087 21.4745 20.223 21.2046 20.2331C19.3627 20.3025 17.5578 20.6558 15.7383 20.8926C14.3663 21.0711 12.992 21.2263 11.6178 21.3837C10.8164 21.4753 10.6506 21.6501 10.6411 22.4092C10.6204 24.0689 10.6389 25.7301 10.5817 27.3887C10.5179 29.2342 10.6629 31.0756 10.6249 32.9196C10.6232 32.9943 10.6691 33.2761 10.7985 33.2072C10.8561 33.1765 10.7912 33.0176 10.7912 32.9551C10.7912 31.9041 10.7912 30.8499 10.7912 29.7412C12.8515 30.5872 14.9582 30.3504 17.009 30.5347C19.7671 30.7832 22.5274 31.0189 25.2457 31.5624C26.3242 31.778 27.4095 31.982 28.5178 31.9682C28.9165 31.9634 29.2027 31.9613 29.3035 32.3385C29.3226 32.41 29.2996 32.6187 29.4144 32.6187C29.4956 32.6187 29.471 32.4338 29.4738 32.3914C29.5286 31.4114 29.485 30.4786 29.5202 29.5383C29.5992 27.4528 29.7101 25.3678 29.6944 23.2785C29.6871 22.3298 29.8971 22.0776 30.9359 21.8514C32.2845 21.5574 33.6475 21.3201 35.0106 21.0902C36.6542 20.8126 38.2984 20.5456 39.9096 20.1218C40.3638 20.0021 40.8331 19.9772 41.3561 20.2204C41.0218 20.5202 40.6802 20.543 40.3632 20.6012C38.1142 21.0123 35.8624 21.4101 33.6145 21.8249C33.1441 21.9118 32.6776 22.0315 32.2217 22.1719C31.8667 22.281 31.4769 22.424 31.4428 22.8049C31.4394 22.8436 31.44 22.8934 31.4792 22.9172C31.5156 22.9395 31.5738 22.8881 31.5996 22.8574C31.9501 22.4442 32.481 22.3186 32.9845 22.2169C34.7816 21.8535 36.5753 21.4695 38.3959 21.2141C39.0662 21.1204 39.7276 20.9668 40.3912 20.8317C40.6135 20.7861 40.8319 20.7586 41.0621 20.7607C41.4216 20.7639 41.5879 20.9175 41.5683 21.248C41.5252 21.9685 41.5745 22.6931 41.4507 23.4104C41.164 25.0748 40.9014 26.7382 41.0123 28.4381Z" fill="#425471" stroke="#425471" stroke-width="0.5"/>
<path d="M30.615 14.1798C31.2478 14.2376 31.3733 14.2137 31.6779 14.1825C31.7698 14.1729 32.0946 14.2105 32.0811 14.0829C32.0716 13.9928 31.7983 14.0272 31.7054 14.0325C31.3363 14.0537 31.0283 13.996 30.6234 14.0357C30.5613 14.0415 30.3708 14.0331 30.3708 14.112C30.3708 14.2063 30.5517 14.174 30.615 14.1798Z" fill="#425471" stroke="#425471" stroke-width="0.5"/>
<path d="M31.4556 23.0549C31.2792 23.0549 31.2591 23.3325 31.2473 23.4115C31.2031 23.7108 31.1795 23.8559 31.1818 24.3136C31.1818 24.3761 31.2182 24.667 31.2938 24.6569C31.4125 24.6415 31.4086 24.3634 31.4125 24.3009C31.4343 23.9772 31.4164 23.6949 31.4931 23.3738C31.5071 23.3145 31.5508 23.0549 31.4556 23.0549Z" fill="#425471" stroke="#425471" stroke-width="0.5"/>
</svg>
