<svg width="50" height="50" viewBox="0 0 50 50" fill="none" xmlns="http://www.w3.org/2000/svg">
<circle cx="25" cy="25" r="24" fill="white" stroke="#DDDDDD" stroke-width="1.5"/>
<path d="M36.6284 34.6231C36.6213 34.5004 36.6106 34.3782 36.5963 34.256C36.3415 32.0312 36.0868 29.8059 35.8302 27.5811C35.4648 24.4097 35.0987 21.2387 34.7291 18.0678C34.7005 17.8223 34.6714 17.593 34.7952 17.352C35.4963 15.9899 35.6094 14.5263 35.588 13.0454C35.5826 12.6906 35.616 12.2158 35.4053 11.8588C35.0993 11.3391 34.6053 11.3072 34.019 11.2999C31.5715 11.2696 29.136 11.4989 26.6944 11.5998C25.7826 11.6374 24.8808 11.7197 23.9868 11.9215C23.1696 12.106 22.703 12.5297 22.4691 13.2982C22.1964 14.1934 22.1322 15.1065 22.0131 16.0179C21.8691 17.1194 22.4137 18.0218 23.4875 18.4248C23.8845 18.5739 24.291 18.6933 24.7189 18.6945C25.2314 18.6956 25.4034 18.9439 25.3903 19.3906C25.3766 19.8508 25.4088 20.3122 25.3874 20.7718C25.3594 21.3867 25.3272 21.3957 24.6285 21.4646C23.8612 21.5408 23.1143 21.4814 22.3994 21.19C21.8965 20.9854 21.359 20.8643 20.8114 20.8755C18.9615 20.9136 17.1146 20.8889 15.2712 20.7197C14.973 20.6922 14.6701 20.704 14.3784 20.7701C13.4445 20.9826 13.1249 21.5005 13.4904 22.1445C13.7975 22.686 14.2713 22.7791 14.8915 22.8312C15.1504 22.8531 15.7337 22.7325 16.0069 22.9668C14.4838 23.4298 14.5219 24.3132 14.4736 25.1468C14.4064 26.3104 14.3385 27.4746 14.2731 28.6383C14.1534 30.7824 14.032 32.9264 13.9189 35.071C13.885 35.7145 13.863 36.3597 13.86 37.0037C13.8576 37.5132 14.054 37.6713 14.573 37.6018C14.7629 37.576 14.9575 37.5205 15.0706 37.3451C15.2938 37.1595 15.2599 36.9022 15.2873 36.6612C15.498 34.83 15.6956 32.9976 15.9283 31.1691C16.0956 29.853 16.1164 29.8564 17.5604 29.9679C19.7353 30.1361 21.9185 30.2112 24.0624 30.6624C25.0148 30.8631 25.088 30.7807 25.0493 31.682C25.0148 32.4813 25.0237 33.3675 25.0737 34.1652C25.0886 34.4051 25.0231 34.7279 25.2856 34.8378C25.4832 34.9208 25.8022 34.8216 25.8022 34.8216C25.8022 34.8216 25.8224 35.7582 25.8421 36.0872C25.9046 37.1293 25.9605 38.1719 26.0486 39.2116C26.0962 39.7755 26.5611 40.0653 27.0569 39.8764C27.4938 39.71 27.4224 39.3209 27.4212 39.0014C27.4105 36.7279 27.3884 34.4544 27.3533 32.1809C27.3325 30.835 27.2825 29.4892 27.2462 28.1434C27.2378 27.8384 27.2855 27.5655 27.7146 27.6181C29.774 27.8726 31.8864 27.5212 33.922 28.0425C34.1327 28.0963 34.3119 28.237 34.4029 28.4242C34.5012 28.6243 34.5631 28.8373 34.594 29.0649C34.7333 30.0996 34.8868 31.1327 35.0374 32.1663C35.1618 33.0166 35.2904 33.867 35.416 34.7173C35.4755 35.1214 35.7267 35.3199 36.1511 35.2885C36.5862 35.2565 36.6481 34.9583 36.6284 34.6231ZM24.2636 18.3111C22.7309 18.0263 22.228 17.3912 22.3405 15.9406C22.4089 15.0538 22.5048 14.1743 22.7869 13.3156C22.9869 12.708 23.3023 12.2999 24.0237 12.1805C24.5975 12.0852 25.1624 11.9154 25.7463 11.8879C28.3777 11.7646 31.0103 11.6665 33.6417 11.5409C34.2589 11.5118 35.1065 11.6278 35.2083 12.1917C35.4428 13.4955 35.2719 14.4944 35.0547 15.7135C34.7904 17.1978 34.1845 17.8811 32.6251 18.2169C32.1513 18.3189 31.6602 18.3884 31.1751 18.4019C28.8699 18.4658 26.5593 18.7376 24.2636 18.3111ZM33.372 20.7292C33.3768 20.9708 33.0988 20.9282 32.9066 20.9276C31.9293 20.9231 30.9519 20.9237 29.9746 20.9164C28.9604 20.9086 27.9634 21.0027 26.8825 21.3693C26.8242 21.3889 26.7581 21.3564 26.745 21.2993C26.5801 20.5767 26.6516 19.9103 26.6659 19.2488C26.6712 18.991 26.845 18.8654 27.1075 18.8531C27.5295 18.834 27.9527 18.8111 28.3747 18.8111C30.0014 18.8111 31.6215 18.7466 33.2953 18.4091C33.5441 19.1715 33.3566 19.9579 33.372 20.7292ZM26.3819 20.9114C26.3688 21.1148 26.4093 21.3923 26.0671 21.3996C25.6641 21.4086 25.6992 21.0958 25.6742 20.8648C25.6552 20.6844 25.6802 20.4994 25.6957 20.3172C25.7219 20.0134 25.7469 19.709 25.7891 19.4063C25.8165 19.209 25.7629 18.9125 26.1153 18.936C26.4331 18.9574 26.3956 19.2471 26.4153 19.4484C26.4391 19.6911 26.398 20.6681 26.3819 20.9114ZM14.6593 22.1681C14.3998 22.1322 14.1606 22.0167 13.9701 21.8396C13.7142 21.6014 13.763 21.3093 14.104 21.1827C14.3094 21.1059 14.548 21.0778 14.7718 21.079C15.9789 21.0846 17.1866 21.0963 18.3931 21.1272C18.7841 21.1373 19.171 21.1602 19.5644 21.1356C20.6489 21.0678 21.7131 21.1255 22.7178 21.5969C23.0994 21.7757 23.5333 21.7981 23.9636 21.7936C24.6493 21.7864 25.335 21.8009 26.0206 21.8021C26.4129 21.8026 26.8194 21.8189 27.167 21.6232C27.7259 21.3093 28.3425 21.2527 28.9616 21.2415C30.1692 21.2202 31.3781 21.2298 32.5864 21.2342C32.8989 21.2354 33.5839 21.2499 33.4464 21.5986C33.3548 21.8306 32.6048 21.7964 32.1906 21.8004C31.0484 21.811 29.9056 21.8133 28.7634 21.8121C28.161 21.8116 27.5849 21.9259 27.0879 22.2415C26.6236 22.5358 26.1308 22.6103 25.5969 22.5672C23.9708 22.436 22.3405 22.3839 20.7114 22.306C19.2412 22.2359 17.7764 22.2583 16.311 22.3149C15.7468 22.3374 15.2057 22.2438 14.6593 22.1681ZM32.1048 22.5885C30.3651 22.4198 28.6574 22.5638 26.9861 23.0358C26.2034 23.2566 25.4278 23.0829 24.6564 23.0487C22.1548 22.9377 19.6585 22.7258 17.1503 22.7561C16.9902 22.7578 16.8295 22.732 16.6694 22.7191C18.2562 22.5851 19.8787 22.5156 21.5018 22.6272C22.897 22.723 24.2922 22.8149 25.6873 22.9113C26.1945 22.9461 26.6575 22.8261 27.076 22.5621C27.4926 22.2992 27.939 22.1586 28.4485 22.1496C29.9419 22.1227 31.4346 22.0717 32.928 22.0358C33.1875 22.0296 33.4494 22.0364 33.7077 22.0588C33.8869 22.0745 34.0083 22.1827 33.9976 22.3637C33.9869 22.5509 33.8214 22.6367 33.6643 22.6372C33.1441 22.6384 32.6215 22.6384 32.1048 22.5885ZM33.5786 23.237C33.5399 23.4736 33.3012 23.4635 33.1173 23.4523C32.8387 23.4354 32.3411 23.3278 32.1614 22.8979C32.5209 22.8996 32.9417 22.936 33.1953 22.9551C33.381 22.9691 33.6208 22.9752 33.5786 23.237ZM15.0349 37.317C15.0486 37.3277 15.0671 37.3428 15.0688 37.3445L15.0349 37.317ZM25.401 34.5542C25.1445 33.4662 25.1939 32.3698 25.3254 31.2667C25.3963 31.2627 25.4677 31.2594 25.5385 31.2554C25.6076 32.3496 25.6766 33.4432 25.7457 34.5374C25.6617 34.543 25.4856 34.5486 25.401 34.5542ZM27.5277 25.3166C27.7146 25.1725 27.9348 25.1311 28.164 25.1137C29.5228 25.01 30.8817 24.9085 32.4721 24.7886C32.5655 24.7886 32.8917 24.7734 33.2161 24.7931C33.5191 24.8116 33.8988 24.6742 34.0577 25.0716C34.2327 25.5089 34.3285 25.964 34.1756 26.4192C34.1059 26.6266 33.8559 26.6142 33.6667 26.5907C31.7281 26.3508 29.7746 26.3401 27.8265 26.2432C27.5968 26.2319 27.3468 26.2325 27.2753 25.9668C27.2069 25.7084 27.3045 25.4887 27.5277 25.3166ZM36.0588 34.8866C35.6392 34.9465 35.7047 34.5357 35.666 34.2812C35.3874 32.4583 35.1118 30.6355 34.8452 28.811C34.7934 28.4567 34.7017 28.1989 34.3047 27.9718C33.8988 27.7403 33.5613 27.6792 33.1477 27.5952C31.8584 27.3317 30.5502 27.4046 29.2479 27.3805C28.7913 27.3721 28.3336 27.3743 27.8789 27.3457C27.2861 27.3087 27.2872 27.2981 27.2997 26.6495C28.4652 26.6495 29.6294 26.617 30.7906 26.6591C31.7983 26.6955 32.8024 26.8138 33.8071 26.9012C34.3851 26.9517 34.4964 26.8738 34.5047 26.3194C34.5101 25.9825 34.4898 25.6434 34.4512 25.3076C34.3928 24.7936 33.9065 24.4153 33.359 24.4495C32.1293 24.5251 30.9007 24.6215 29.6722 24.7118C29.1193 24.7521 28.5628 24.769 28.0158 24.8486C27.1694 24.9719 26.951 25.2112 26.9587 26.0044C26.9849 28.8906 27.0367 31.7773 27.0569 34.6635C27.067 36.1035 27.039 37.5435 27.1343 38.9818C27.142 39.1029 27.1402 39.2313 27.1069 39.3473C27.0617 39.5048 26.945 39.6141 26.7534 39.6029C26.5682 39.5922 26.4522 39.4913 26.4248 39.3215C26.3903 39.1091 26.3641 38.8949 26.3492 38.6808C26.2528 37.3025 26.1629 35.9241 26.0665 34.5458C25.9957 33.5351 25.9272 32.5239 25.8415 31.5138C25.7814 30.807 25.6195 30.6316 24.841 30.492C22.822 30.1293 20.7977 29.7953 18.7335 29.7633C17.9199 29.7504 17.1175 29.5486 16.2956 29.6445C16.0367 29.6747 15.7831 29.7016 15.4772 29.8216C15.4248 29.8418 15.4153 29.9062 15.4545 29.9444C15.745 30.2297 15.6813 30.5632 15.6414 30.8973C15.4438 32.543 15.2421 34.1881 15.0647 35.8361C15.0123 36.3227 15.0343 36.8165 15.0218 37.307C14.126 37.2823 14.1326 37.2829 14.1737 36.5015C14.3504 33.1584 14.5213 29.8154 14.698 26.4724C14.7337 25.7987 14.7873 25.1255 14.8278 24.4517C14.8409 24.232 14.9439 23.9893 15.1248 23.8351C15.6545 23.3844 16.2521 23.0997 17.0146 23.0941C20.2394 23.0683 23.4529 23.246 26.7843 23.5257C26.3623 24.1552 25.7367 24.3026 25.1868 24.3245C23.3648 24.3968 21.5411 24.4495 19.7138 24.3256C18.8425 24.2667 17.9568 24.3659 17.0795 24.4209C16.4521 24.4601 16.311 24.941 16.2331 25.3996C16.0938 26.2168 15.9813 27.0402 15.9093 27.8648C15.8962 28.0156 15.8688 28.1523 15.8087 28.2807C15.7438 28.4197 15.4891 28.4668 15.4593 28.6523C15.4397 28.7745 15.7129 28.7431 15.8283 28.7689C16.4027 28.895 16.9432 28.9203 17.4753 28.973C19.9073 29.2123 22.3423 29.4315 24.7755 29.6602C25.5445 29.7325 25.6361 29.6803 25.6635 28.9578C25.6992 28.0077 25.6909 27.0559 25.7129 26.1047C25.7219 25.7062 25.7546 25.3082 25.7867 24.9108C25.8016 24.7275 25.8177 24.5016 26.023 24.4366C26.6349 24.2421 27.1218 23.9433 27.3962 23.3575C27.4539 23.2337 27.7241 23.1714 27.9086 23.1305C28.9282 22.9041 29.9687 22.8278 31.0115 22.7852C31.3817 22.7701 31.7186 22.829 31.9162 23.1955C32.1531 23.635 32.6227 23.7146 33.0774 23.774C33.681 23.853 33.8143 23.7533 34.0458 23.1608C34.1012 23.019 34.1637 22.8732 34.2547 22.7505C34.5166 22.3968 34.472 21.9254 34.2607 21.7045C33.3661 20.7679 33.7798 19.6681 33.706 18.6317C33.6774 18.2331 33.8821 18.0016 34.3684 18C34.6321 19.0241 34.6541 20.0706 34.7761 21.1003C35.2928 25.4635 35.7606 29.8317 36.2451 34.1977C36.2737 34.4527 36.4814 34.826 36.0588 34.8866ZM25.0463 25.1451C24.9665 26.5145 25.0302 27.8844 24.9534 29.3166C23.6547 29.2089 22.2643 29.1142 21.0096 28.9976C19.6823 28.8737 18.3562 28.7353 17.0312 28.5907C16.2206 28.5027 16.1765 28.4449 16.2271 27.6635C16.2765 26.8979 16.4015 26.1434 16.5759 25.3928C16.6753 24.9651 16.8932 24.7975 17.3604 24.7443C18.5282 24.6114 19.693 24.57 20.8638 24.6647C22.0316 24.7594 23.1988 24.7051 24.3642 24.6266C24.7832 24.5997 25.0749 24.658 25.0463 25.1451Z" fill="#425471" stroke="#425471" stroke-width="0.5"/>
</svg>
