<svg width="50" height="50" viewBox="0 0 50 50" fill="none" xmlns="http://www.w3.org/2000/svg">
<circle cx="25" cy="25" r="24" fill="white" stroke="#DDDDDD" stroke-width="1.5"/>
<path d="M38.5663 17.6879C38.0085 17.5414 37.8725 17.2704 37.9128 16.7771C37.9754 16.0134 38.124 15.2452 37.757 14.4899C37.6565 14.2828 37.7461 13.9748 37.8063 13.7251C37.9357 13.1886 37.7816 12.6864 37.609 12.1965C37.3803 11.5473 36.9501 11.2858 36.1932 11.2976C32.2623 11.3615 28.3314 11.4205 24.4011 11.5074C22.8156 11.5428 22.6044 11.8312 22.1598 13.2868C21.7645 14.5797 21.6808 15.9062 21.4329 17.2131C21.3409 17.6996 21.0948 17.9494 20.6537 18.1435C19.8649 18.4909 19.0358 18.4667 18.2 18.4336C15.7313 18.3354 13.2613 18.2703 10.7901 18.3006C10.5813 18.3034 10.3738 18.3074 10.1902 18.4269C9.822 18.6665 9.80696 19.1519 10.2384 19.2652C10.9761 19.4588 10.9791 19.9279 10.9755 20.4638C10.9574 23.517 10.9424 26.5696 10.9297 29.6228C10.9213 31.6357 10.9189 33.6485 10.9135 35.6613C10.9129 35.9548 10.8774 36.2741 11.1987 36.4463C11.3732 36.54 11.5525 36.5574 11.7167 36.5322C12.1458 36.4671 12.2023 36.1242 12.2264 36.0272C12.2709 35.8454 12.2143 35.6327 12.2216 35.4525C12.2787 33.9925 12.3323 32.5324 12.3768 31.0723C12.4117 29.9281 12.4472 29.9191 13.6211 30.0605C16.5544 30.414 19.4919 30.7389 22.4281 31.0711C22.4865 31.0779 22.6002 31.07 22.6207 31.0032C22.6815 30.8035 22.3271 30.7939 22.173 30.7749C19.2404 30.4163 16.3065 30.0701 13.372 29.7261C12.4075 29.6127 12.4069 29.6183 12.3852 28.7458C12.3557 27.5438 12.3545 27.5932 13.6416 27.6212C16.573 27.6841 19.4341 28.3709 22.3644 28.4253C24.3488 28.4618 26.3253 28.6133 28.2935 28.8507C28.5697 28.8838 28.8428 28.9455 29.1196 28.9635C29.5685 28.9927 29.7243 29.2239 29.6876 29.611C29.6503 29.9988 29.619 30.3877 29.5715 30.7743C29.4704 31.5952 29.4205 31.6093 28.5203 31.4959C27.0251 31.3074 25.5239 31.1705 23.9155 30.983C23.6436 30.9511 23.2356 30.8399 23.1351 30.914C23.0196 30.9988 23.0984 31.1099 23.1965 31.1424C23.5028 31.2451 23.8048 31.2659 24.0034 31.2889C25.489 31.4595 26.9764 31.6104 28.4638 31.7647C29.4921 31.8713 29.539 31.9089 29.5053 32.9145C29.4355 34.9907 29.3765 37.0675 29.2574 39.1415C29.2297 39.6263 29.3007 39.8833 29.8519 39.9277C30.4048 39.972 30.6991 39.7891 30.7472 39.2279C30.814 38.4519 30.8134 37.6708 30.8465 36.8919C30.9175 35.2062 31.0059 33.5205 31.0559 31.8337C31.0727 31.2698 31.2653 30.9724 31.9013 30.8136C33.3784 30.4449 34.8249 29.9696 36.2912 29.5628C37.0055 29.3647 37.0422 29.404 37.0891 30.1138C37.121 30.5981 37.1378 31.0835 37.1414 31.5683C37.145 31.9987 37.3641 32.2725 37.8159 32.2709C38.2088 32.2692 38.4405 32.0032 38.4766 31.6373C38.5085 31.3147 38.5151 30.9881 38.5121 30.6637C38.4856 28.0073 38.3791 25.352 38.4525 22.6944C38.4658 22.2101 38.3665 21.7242 38.3478 21.2382C38.3111 20.2961 38.3129 19.3775 38.8852 18.5139C39.2582 17.9538 39.1956 17.8528 38.5663 17.6879ZM10.3599 18.8853C10.2721 18.4117 11.316 18.5868 11.6343 18.5885C14.0971 18.6031 16.3336 18.6845 18.7963 18.7215C19.5569 18.7327 20.3138 18.7726 21.0767 18.4937C20.7127 19.3949 19.8818 19.447 19.0538 19.428C16.9052 19.3786 14.7595 19.263 12.6091 19.2484C11.8906 19.2434 10.4153 19.1828 10.3599 18.8853ZM12.4761 20.0626C12.3557 19.6171 12.7065 19.5295 13.1031 19.5419C14.5604 19.5873 16.0183 19.6468 17.4762 19.6642C18.6152 19.6777 19.765 19.8084 20.9829 19.4459C21.1044 20.6333 20.6736 21.6422 20.4462 22.6792C20.383 22.9665 20.1176 22.9817 19.8721 22.9907C19.2825 23.012 18.6868 22.9851 18.1026 23.0485C16.543 23.2174 14.9785 23.1282 13.4165 23.1674C12.5483 23.1893 12.464 23.0799 12.4424 22.2825C12.4231 21.5435 12.6789 20.814 12.4761 20.0626ZM12.094 22.7651C12.0838 23.0715 11.8611 23.2168 11.3443 23.1674C11.3443 22.1136 11.3389 21.08 11.3485 20.0464C11.3503 19.8213 11.3756 19.5671 11.7041 19.5374C12.1042 19.5009 12.1355 19.7877 12.1722 20.048C12.301 20.9571 12.1241 21.86 12.094 22.7651ZM12.0838 28.1801C11.8864 30.8147 11.9761 33.3157 11.9761 35.9531C11.9761 36.14 11.8317 36.2673 11.7161 36.2673C11.2342 36.2673 11.1548 35.9924 11.1812 35.5126C11.1903 35.351 11.1903 35.1888 11.1927 35.0266C11.2306 32.8281 11.2528 30.629 11.3214 28.431C11.3329 28.0634 11.2342 27.4361 11.3738 27.3154C11.7805 26.9641 12.1199 27.7004 12.0838 28.1801ZM28.7381 28.5875C27.6653 28.4888 26.5967 28.3518 25.5227 28.2665C22.8915 28.0589 20.2374 28.1257 17.6278 27.6538C17.0153 27.5432 16.3853 27.5169 15.7632 27.4551C14.6572 27.3457 13.5531 27.2172 12.4442 27.1409C11.896 27.1033 11.7348 26.8435 11.7228 26.3895C11.7053 25.7094 11.6602 25.0299 11.6361 24.3498C11.6078 23.5501 11.7938 23.3689 12.659 23.4115C14.2589 23.4901 15.8576 23.43 17.4539 23.3722C20.1652 23.274 22.8746 23.15 25.5883 23.1383C25.7056 23.1377 25.8325 23.1332 25.9553 23.1158C26.0534 23.1018 26.1569 23.0659 26.1382 22.9548C26.1268 22.8863 26.0552 22.8369 25.9673 22.8364C25.8356 22.8352 25.7098 22.8313 25.5792 22.833C24.2585 22.8509 22.9384 22.8801 21.6177 22.8964C20.8679 22.9059 20.7915 22.8397 20.9311 22.1995C21.4305 19.9077 21.7019 17.5857 22.0395 15.2721C22.152 14.5028 22.3439 13.7397 22.5605 12.9894C22.806 12.1398 23.1983 11.8615 24.1111 11.8267C25.6406 11.7678 27.1707 11.7179 28.7008 11.6836C31.101 11.6303 33.5012 11.5995 35.9013 11.5473C36.9585 11.5243 37.4429 11.8969 37.4892 12.917C37.565 14.578 37.2509 16.216 37.0482 17.8573C36.9573 18.5907 36.3767 18.9617 35.5764 18.9257C34.7786 18.8898 33.9801 18.8287 33.1865 18.7417C31.9753 18.6087 30.7598 18.556 29.542 18.5217C29.3146 18.5156 29.1118 18.5677 29.0179 18.7641C28.9211 18.9656 29.0348 19.1491 29.19 19.2871C29.3134 19.3971 29.4578 19.5178 29.6148 19.5576C30.104 19.6816 30.1443 20.0228 30.1226 20.3948C30.0883 20.9773 30.0246 21.5581 29.9969 22.1405C29.9078 24.0198 29.8356 25.8996 29.7448 27.7789C29.7069 28.592 29.6088 28.6678 28.7381 28.5875ZM31.0505 25.091C30.9777 26.6763 30.8724 28.2604 30.808 29.8456C30.7237 31.914 30.536 36.3768 30.5474 36.5372C30.6106 37.4154 30.4313 38.2807 30.3946 39.1533C30.3844 39.4024 30.2725 39.5977 29.9584 39.5932C29.6359 39.5887 29.5552 39.3957 29.5673 39.1359C29.5745 38.9737 29.5733 38.8116 29.5817 38.6499C29.7021 36.2561 29.8368 33.8628 29.9415 31.4679C30.0986 27.8754 30.2346 24.2819 30.3808 20.6894C30.3886 20.4953 30.4054 20.3011 30.4295 20.1081C30.4566 19.892 30.5667 19.7377 30.8278 19.7596C31.0156 19.7753 31.1546 19.8774 31.1895 20.0542C31.2207 20.2119 31.2346 20.3763 31.2292 20.5368C31.1738 22.0547 31.1209 23.5731 31.0505 25.091ZM37.0464 29.0162C35.3562 29.4999 33.663 29.9735 31.9723 30.4567C31.811 30.5027 31.3164 30.5936 31.1329 30.7878C31.1329 30.6834 31.1732 30.1492 31.1738 30.0414C31.1762 29.6918 31.2141 29.4433 31.2039 29.0763C31.1913 28.6341 31.4073 28.4658 31.8772 28.4096C33.669 28.1958 35.4194 27.7991 37.145 27.3014C37.4176 27.2228 38.0301 26.8929 38.1282 27.2531C38.1565 27.3564 38.1294 27.6302 38.1366 27.7559C38.2082 28.9674 38.1499 28.7003 37.0464 29.0162ZM35.5259 24.0933C36.2305 24.3099 36.4561 24.4306 36.4736 25.114C36.4874 25.6623 36.4381 26.2122 36.4182 26.7616C36.4068 27.0702 36.121 27.2088 35.8231 27.2935C34.6257 27.6325 33.423 27.9512 32.169 28.0348C31.3002 28.0926 31.2484 28.0572 31.2665 27.2733C31.2935 26.0758 31.3567 24.8784 31.4235 23.682C31.4813 22.6473 31.4091 21.6086 31.5667 20.5766C31.6847 19.8062 31.666 19.7888 32.5355 19.8443C33.5397 19.9083 34.5415 20.0054 35.5451 20.0789C36.6908 20.1625 36.6944 20.158 36.6637 21.1933C36.6523 21.5816 36.6462 21.9716 36.5975 22.3566C36.3923 23.9671 36.3887 23.9598 34.713 23.5793C34.0481 23.4284 33.2352 23.2926 32.4963 23.2454C32.3922 23.2387 31.9416 23.1944 31.9338 23.3318C31.9253 23.4766 32.2845 23.4688 32.4572 23.4907C33.4404 23.6152 34.5878 23.8049 35.5259 24.0933ZM37.7853 24.1994C37.7654 24.6601 37.8755 26.1808 37.7732 26.6218C37.7094 26.8985 37.334 26.9473 37.0891 26.9321C36.8623 26.9181 36.8496 26.7245 36.8496 26.5674C36.8472 24.5641 36.769 22.5586 37.047 20.5637C37.0728 20.3763 37.0771 20.1339 37.355 20.1361C37.63 20.1384 37.6511 20.3797 37.6535 20.5665C37.6631 21.4711 37.8183 23.4222 37.7853 24.1994ZM38.0398 19.896C38.0975 20.3752 38.2311 21.241 38.0103 21.759C37.9224 21.3089 37.8996 20.3668 38.0398 19.896ZM38.1204 31.506C38.1228 31.6648 38.0849 31.8523 37.8587 31.8595C37.6613 31.8657 37.5331 31.7282 37.5157 31.5571C37.4447 30.8467 37.3394 30.3327 37.3388 29.5229C37.3388 29.294 37.6487 29.1863 37.9387 29.1498C38.0608 29.1346 38.1776 29.2132 38.1956 29.3265C38.3099 30.0521 38.1084 30.7973 38.1204 31.506ZM36.121 19.8466C34.0872 19.6956 32.0601 19.4729 30.03 19.2781C29.8308 19.2591 29.5913 19.2759 29.6082 18.9302C30.391 18.8685 31.1732 18.8562 31.9632 18.9459C33.0282 19.0672 34.0993 19.1423 35.1661 19.2551C36.0253 19.346 36.7329 19.1906 37.1866 18.4129C37.4982 17.8781 37.9916 17.7361 38.5933 18.0285C38.3262 19.2658 37.4652 19.9459 36.121 19.8466Z" fill="#425471" stroke="#425471" stroke-width="0.5"/>
<path d="M29.5831 23.861C29.5921 23.7639 29.3857 23.7543 29.278 23.7454C28.5133 23.6814 27.7666 23.6028 26.8532 23.5652C26.7978 23.563 26.6841 23.5602 26.6745 23.6326C26.6637 23.7139 26.787 23.7504 26.843 23.7611C27.7184 23.9238 28.1613 23.9468 29.2798 23.9328C29.3779 23.9311 29.5747 23.9592 29.5831 23.861Z" fill="#425471" stroke="#425471" stroke-width="0.5"/>
</svg>
