<svg width="68" height="68" viewBox="0 0 68 68" fill="none" xmlns="http://www.w3.org/2000/svg">
<circle cx="34" cy="34" r="33" stroke="#DDDDDD" stroke-width="1.5"/>
<path d="M51.2078 23.7734C50.4834 23.5724 50.3068 23.2003 50.3592 22.5231C50.4404 21.4747 50.6334 20.42 50.1568 19.3831C50.0263 19.0989 50.1427 18.6759 50.2209 18.3331C50.3889 17.5967 50.1888 16.9072 49.9646 16.2346C49.6677 15.3433 49.109 14.9843 48.126 15.0005C43.0213 15.0883 37.9166 15.1692 32.8127 15.2886C30.7538 15.3372 30.4796 15.7331 29.9021 17.7315C29.3888 19.5064 29.2802 21.3275 28.9582 23.1217C28.8387 23.7896 28.5191 24.1324 27.9464 24.399C26.922 24.8758 25.8453 24.8427 24.7599 24.7973C21.554 24.6624 18.3464 24.5731 15.1374 24.6147C14.8662 24.6185 14.5966 24.6239 14.3583 24.788C13.8801 25.117 13.8606 25.7833 14.4208 25.9389C15.3788 26.2047 15.3827 26.8487 15.378 27.5844C15.3546 31.776 15.335 35.9668 15.3186 40.1583C15.3077 42.9216 15.3046 45.6849 15.2975 48.4482C15.2968 48.8511 15.2507 49.2895 15.6679 49.526C15.8945 49.6546 16.1273 49.6785 16.3407 49.6438C16.8978 49.5545 16.9712 49.0838 17.0025 48.9505C17.0603 48.7009 16.9869 48.4089 16.9962 48.1616C17.0705 46.1572 17.14 44.1527 17.1978 42.1482C17.2431 40.5774 17.2892 40.5651 18.8137 40.7592C22.6229 41.2445 26.4375 41.6906 30.2506 42.1466C30.3264 42.1559 30.4741 42.1451 30.5007 42.0534C30.5796 41.7792 30.1193 41.7661 29.9193 41.7399C26.1109 41.2476 22.301 40.7723 18.4902 40.3001C17.2377 40.1445 17.2369 40.1522 17.2088 38.9542C17.1705 37.3041 17.1689 37.3719 18.8403 37.4104C22.6471 37.4967 26.3625 38.4396 30.1678 38.5144C32.7448 38.5644 35.3116 38.7724 37.8674 39.0983C38.2261 39.1438 38.5808 39.2285 38.9402 39.2532C39.5231 39.2932 39.7255 39.6106 39.6778 40.1422C39.6294 40.6745 39.5888 41.2083 39.527 41.7391C39.3958 42.8662 39.3309 42.8854 38.162 42.7298C36.2203 42.471 34.2708 42.283 32.1822 42.0257C31.829 41.9818 31.2992 41.8293 31.1687 41.9309C31.0187 42.0473 31.1211 42.1998 31.2484 42.2445C31.6461 42.3855 32.0384 42.414 32.2962 42.4455C34.2254 42.6797 36.157 42.887 38.0885 43.0988C39.4239 43.2452 39.4849 43.2968 39.4411 44.6773C39.3505 47.5276 39.2739 50.3788 39.1192 53.226C39.0832 53.8916 39.1754 54.2445 39.8912 54.3053C40.6092 54.3662 40.9913 54.115 41.0538 53.3447C41.1406 52.2793 41.1398 51.2069 41.1828 50.1376C41.275 47.8235 41.3898 45.5093 41.4547 43.1936C41.4766 42.4194 41.7266 42.0111 42.5525 41.793C44.4708 41.2869 46.3492 40.6344 48.2534 40.0759C49.1809 39.804 49.2285 39.8579 49.2895 40.8324C49.3309 41.4972 49.3528 42.1636 49.3575 42.8292C49.3622 43.4201 49.6466 43.796 50.2334 43.7937C50.7436 43.7914 51.0444 43.4262 51.0913 42.9239C51.1327 42.481 51.1413 42.0326 51.1374 41.5874C51.103 37.9404 50.9647 34.2951 51.0601 30.6466C51.0773 29.9818 50.9483 29.3147 50.9241 28.6475C50.8764 27.3541 50.8788 26.093 51.6219 24.9074C52.1063 24.1386 52.0251 23.9999 51.2078 23.7734ZM14.5787 25.4174C14.4646 24.7672 15.8203 25.0076 16.2336 25.0099C19.4318 25.0299 22.3361 25.1416 25.5343 25.1925C26.5219 25.2079 27.5049 25.2626 28.4957 24.8797C28.0229 26.1169 26.9439 26.1885 25.8687 26.1623C23.0784 26.0945 20.2921 25.9359 17.4994 25.9158C16.5665 25.9089 14.6506 25.8257 14.5787 25.4174ZM17.3268 27.0336C17.1705 26.422 17.626 26.3018 18.1409 26.3187C20.0334 26.3811 21.9267 26.4628 23.8199 26.4867C25.2991 26.5052 26.7923 26.6846 28.3738 26.187C28.5316 27.8171 27.9721 29.2022 27.6768 30.6258C27.5947 31.0203 27.2502 31.0411 26.9314 31.0534C26.1656 31.0827 25.3921 31.0457 24.6333 31.1327C22.608 31.3646 20.5765 31.2421 18.548 31.2961C17.4205 31.3261 17.3111 31.1759 17.283 30.0812C17.258 29.0666 17.5901 28.0651 17.3268 27.0336ZM16.8306 30.7437C16.8173 31.1643 16.5282 31.3638 15.857 31.2961C15.857 29.8493 15.85 28.4303 15.8625 27.0113C15.8648 26.7024 15.8976 26.3534 16.3243 26.3126C16.8439 26.2625 16.8845 26.6561 16.9322 27.0136C17.0994 28.2616 16.8697 29.5011 16.8306 30.7437ZM16.8173 38.1777C16.561 41.7946 16.6774 45.2281 16.6774 48.8488C16.6774 49.1053 16.4899 49.2802 16.3399 49.2802C15.714 49.2802 15.6109 48.9027 15.6452 48.2441C15.657 48.0222 15.657 47.7996 15.6601 47.5769C15.7093 44.5587 15.7382 41.5396 15.8273 38.5221C15.8421 38.0175 15.714 37.1562 15.8953 36.9906C16.4235 36.5083 16.8642 37.5191 16.8173 38.1777ZM38.4448 38.737C37.0517 38.6014 35.664 38.4135 34.2692 38.2964C30.8523 38.0113 27.4056 38.103 24.0168 37.4551C23.2214 37.3034 22.4033 37.2671 21.5954 37.1824C20.1592 37.0322 18.7254 36.8558 17.2853 36.751C16.5735 36.6994 16.3641 36.3427 16.3485 35.7195C16.3258 34.7858 16.2672 33.8529 16.236 32.9192C16.1992 31.8214 16.4407 31.5726 17.5643 31.6312C19.642 31.739 21.7181 31.6566 23.791 31.5772C27.3119 31.4424 30.8304 31.2722 34.3544 31.256C34.5067 31.2552 34.6716 31.2491 34.831 31.2252C34.9584 31.2059 35.0928 31.1566 35.0685 31.0041C35.0537 30.9101 34.9607 30.8423 34.8466 30.8415C34.6755 30.84 34.5122 30.8346 34.3427 30.8369C32.6275 30.8616 30.9132 30.9016 29.1981 30.924C28.2245 30.9371 28.1253 30.8462 28.3066 29.9672C28.9551 26.821 29.3075 23.6332 29.7459 20.457C29.892 19.4008 30.1412 18.3531 30.4225 17.3232C30.7413 16.1568 31.2508 15.7747 32.4361 15.727C34.4224 15.6461 36.4094 15.5775 38.3964 15.5305C41.5133 15.4573 44.6302 15.415 47.7471 15.3433C49.1199 15.3117 49.7489 15.8233 49.8091 17.2238C49.9075 19.5041 49.4997 21.7528 49.2364 24.0061C49.1184 25.013 48.3643 25.5222 47.3251 25.4729C46.289 25.4236 45.2521 25.3396 44.2215 25.2202C42.6486 25.0376 41.0703 24.9652 39.4888 24.9182C39.1934 24.9097 38.9301 24.9814 38.8082 25.251C38.6824 25.5276 38.8301 25.7795 39.0317 25.969C39.1918 26.12 39.3794 26.2856 39.5833 26.3403C40.2186 26.5105 40.2709 26.9789 40.2428 27.4897C40.1982 28.2893 40.1154 29.0866 40.0795 29.8863C39.9638 32.4662 39.8701 35.047 39.7521 37.6269C39.7029 38.7432 39.5755 38.8472 38.4448 38.737ZM41.4477 33.9369C41.3531 36.1131 41.2164 38.2879 41.1328 40.4642C41.0234 43.3037 40.7796 49.4304 40.7944 49.6508C40.8765 50.8564 40.6436 52.0443 40.596 53.2422C40.5827 53.5842 40.4373 53.8523 40.0295 53.8462C39.6107 53.84 39.5059 53.575 39.5216 53.2183C39.531 52.9957 39.5294 52.7731 39.5403 52.5512C39.6966 49.2648 39.8716 45.9792 40.0076 42.6913C40.2115 37.7594 40.3881 32.826 40.578 27.8941C40.5881 27.6276 40.61 27.361 40.6413 27.096C40.6764 26.7994 40.8194 26.5876 41.1585 26.6176C41.4023 26.6392 41.5828 26.7794 41.6282 27.0221C41.6688 27.2385 41.6868 27.4643 41.6797 27.6846C41.6078 29.7684 41.5391 31.853 41.4477 33.9369ZM49.234 39.3256C47.0391 39.9896 44.8404 40.6398 42.6447 41.3031C42.4353 41.3663 41.793 41.4911 41.5547 41.7576C41.5547 41.6143 41.6071 40.8809 41.6078 40.733C41.611 40.2531 41.6602 39.9118 41.6469 39.408C41.6305 38.8009 41.911 38.5698 42.5213 38.4928C44.8482 38.1993 47.1212 37.6546 49.3622 36.9713C49.7161 36.8635 50.5115 36.4105 50.6389 36.9051C50.6756 37.0468 50.6405 37.4228 50.6499 37.5953C50.7428 39.2585 50.667 38.8919 49.234 39.3256ZM47.2595 32.5672C48.1745 32.8645 48.4675 33.0301 48.4901 33.9684C48.5081 34.7211 48.444 35.4761 48.4183 36.2302C48.4034 36.6539 48.0323 36.8442 47.6455 36.9605C46.0906 37.4258 44.5286 37.8634 42.9002 37.9782C41.7719 38.0575 41.7047 38.009 41.7282 36.9328C41.7633 35.2889 41.8454 33.6449 41.9321 32.0025C42.0071 30.5819 41.9134 29.156 42.1181 27.7393C42.2712 26.6816 42.247 26.6577 43.3761 26.7339C44.6802 26.8218 45.9812 26.955 47.2845 27.056C48.7722 27.1707 48.7769 27.1646 48.7371 28.5859C48.7222 29.119 48.7144 29.6544 48.6511 30.1829C48.3847 32.3938 48.38 32.3838 46.2039 31.8615C45.3404 31.6543 44.2848 31.4678 43.3253 31.4031C43.1901 31.3939 42.6049 31.333 42.5947 31.5218C42.5838 31.7205 43.0502 31.7097 43.2745 31.7398C44.5513 31.9108 46.0413 32.1712 47.2595 32.5672ZM50.1935 32.7128C50.1677 33.3452 50.3107 35.4329 50.1779 36.0384C50.0951 36.4182 49.6075 36.4852 49.2895 36.4644C48.9949 36.4452 48.9785 36.1794 48.9785 35.9637C48.9754 33.2135 48.8738 30.4602 49.2348 27.7216C49.2684 27.4643 49.2739 27.1315 49.6349 27.1345C49.9919 27.1376 50.0193 27.4689 50.0224 27.7254C50.0349 28.9672 50.2365 31.6458 50.1935 32.7128ZM50.5241 26.8048C50.5991 27.4627 50.7725 28.6514 50.4858 29.3624C50.3717 28.7446 50.342 27.4512 50.5241 26.8048ZM50.6288 42.7437C50.6319 42.9617 50.5827 43.219 50.2889 43.229C50.0326 43.2375 49.8661 43.0487 49.8435 42.8138C49.7513 41.8385 49.6145 41.1328 49.6138 40.0212C49.6138 39.7069 50.0162 39.559 50.3928 39.5089C50.5514 39.4881 50.703 39.596 50.7264 39.7516C50.8749 40.7477 50.6131 41.7707 50.6288 42.7437ZM48.0323 26.737C45.3912 26.5298 42.7588 26.224 40.1224 25.9567C39.8638 25.9305 39.5528 25.9536 39.5747 25.479C40.5913 25.3943 41.6071 25.3773 42.633 25.5006C44.016 25.667 45.4069 25.7702 46.7922 25.9251C47.908 26.0499 48.8269 25.8365 49.4161 24.7687C49.8208 24.0346 50.4615 23.8397 51.2429 24.241C50.896 25.9397 49.7778 26.8734 48.0323 26.737Z" fill="#425471" stroke="#425471" stroke-width="0.5"/>
<path d="M39.5419 32.2479C39.5536 32.1147 39.2856 32.1016 39.1458 32.0892C38.1527 32.0014 37.183 31.8936 35.9969 31.842C35.925 31.8389 35.7773 31.835 35.7648 31.9344C35.7507 32.0461 35.9109 32.0962 35.9836 32.1108C37.1205 32.3342 37.6956 32.3658 39.1481 32.3465C39.2755 32.3442 39.531 32.3827 39.5419 32.2479Z" fill="#425471" stroke="#425471" stroke-width="0.5"/>
</svg>
