<svg width="68" height="68" viewBox="0 0 68 68" fill="none" xmlns="http://www.w3.org/2000/svg">
<circle cx="34" cy="34" r="33" stroke="#DDDDDD" stroke-width="1.5"/>
<path d="M49.0178 47.9067C49.0079 47.7282 48.9932 47.5506 48.9736 47.373C48.6233 44.1391 48.273 40.9043 47.9203 37.6704C47.4178 33.0603 46.9144 28.4511 46.4062 23.8418C46.3669 23.4849 46.3268 23.1516 46.4971 22.8013C47.4611 20.8213 47.6166 18.6939 47.5872 16.5412C47.5798 16.0255 47.6256 15.3353 47.3359 14.8163C46.9153 14.061 46.236 14.0146 45.4299 14.004C42.0646 13.96 38.7156 14.2932 35.3585 14.4399C34.1047 14.4945 32.8648 14.6142 31.6356 14.9076C30.5119 15.1756 29.8703 15.7916 29.5486 16.9087C29.1738 18.2099 29.0854 19.5372 28.9217 20.8621C28.7237 22.4631 29.4725 23.775 30.9489 24.3608C31.4948 24.5775 32.0538 24.7511 32.6422 24.7527C33.3469 24.7543 33.5834 25.1153 33.5654 25.7647C33.5466 26.4336 33.5908 27.1042 33.5613 27.7723C33.5228 28.6662 33.4786 28.6792 32.5178 28.7794C31.4629 28.8902 30.4358 28.8039 29.4529 28.3802C28.7613 28.0828 28.0223 27.9068 27.2694 27.9231C24.7257 27.9785 22.1862 27.9426 19.6516 27.6966C19.2416 27.6566 18.825 27.6737 18.424 27.7699C17.1399 28.0787 16.7004 28.8316 17.2029 29.7678C17.6252 30.5548 18.2767 30.6901 19.1295 30.7659C19.4855 30.7977 20.2875 30.6225 20.6632 30.9631C18.5689 31.6361 18.6212 32.9202 18.5549 34.1318C18.4625 35.8233 18.3692 37.5156 18.2791 39.2071C18.1146 42.3237 17.9477 45.4403 17.7922 48.5577C17.7455 49.4931 17.7153 50.4309 17.7112 51.3671C17.7079 52.1077 17.978 52.3375 18.6916 52.2365C18.9527 52.199 19.2203 52.1183 19.3758 51.8633C19.6827 51.5936 19.6361 51.2196 19.6737 50.8692C19.9634 48.2073 20.2351 45.5438 20.5551 42.8859C20.7851 40.9728 20.8138 40.9777 22.7992 41.1398C25.7897 41.3843 28.7916 41.4934 31.7395 42.1493C33.049 42.441 33.1496 42.3213 33.0964 43.6314C33.049 44.7933 33.0612 46.0815 33.13 47.241C33.1504 47.5897 33.0604 48.059 33.4213 48.2187C33.6931 48.3393 34.1317 48.1951 34.1317 48.1951C34.1317 48.1951 34.1595 49.5566 34.1866 50.0349C34.2725 51.5496 34.3494 53.0651 34.4705 54.5766C34.536 55.3962 35.1752 55.8175 35.8569 55.5429C36.4576 55.3009 36.3594 54.7354 36.3578 54.271C36.3431 50.9662 36.3128 47.6614 36.2645 44.3566C36.2358 42.4003 36.1671 40.444 36.1172 38.4877C36.1057 38.0444 36.1712 37.6476 36.7613 37.7242C39.593 38.0941 42.4975 37.5832 45.2964 38.341C45.5862 38.4192 45.8325 38.6237 45.9577 38.8959C46.0928 39.1868 46.1779 39.4964 46.2204 39.8272C46.4119 41.3313 46.6231 42.833 46.8301 44.3354C47.0012 45.5715 47.178 46.8075 47.3507 48.0435C47.4325 48.631 47.7779 48.9195 48.3614 48.8738C48.9596 48.8274 49.0448 48.3939 49.0178 47.9067ZM32.0161 24.1954C29.9087 23.7815 29.2172 22.8583 29.3719 20.7496C29.466 19.4606 29.5977 18.1822 29.9857 16.934C30.2606 16.0507 30.6944 15.4576 31.6863 15.284C32.4753 15.1455 33.2519 14.8986 34.0548 14.8587C37.673 14.6794 41.2928 14.5368 44.911 14.3543C45.7597 14.312 46.9251 14.4806 47.065 15.3003C47.3875 17.1955 47.1526 18.6475 46.8539 20.4196C46.4905 22.5772 45.6574 23.5704 43.5131 24.0585C42.8617 24.2068 42.1865 24.3078 41.5195 24.3274C38.3498 24.4203 35.1727 24.8154 32.0161 24.1954ZM44.5402 27.7104C44.5468 28.0616 44.1646 27.9997 43.9002 27.9988C42.5564 27.9923 41.2126 27.9931 39.8688 27.9825C38.4742 27.9711 37.1034 28.108 35.6171 28.6409C35.5369 28.6694 35.4461 28.6222 35.4281 28.5391C35.2014 27.4888 35.2996 26.52 35.3192 25.5585C35.3266 25.1837 35.5656 25.0012 35.9265 24.9833C36.5067 24.9556 37.0886 24.9222 37.6689 24.9222C39.9056 24.9222 42.1333 24.8285 44.4347 24.338C44.7768 25.4461 44.519 26.5893 44.5402 27.7104ZM34.9288 27.9752C34.9108 28.271 34.9665 28.6743 34.4959 28.6849C33.9418 28.6979 33.9901 28.2433 33.9558 27.9076C33.9296 27.6452 33.9639 27.3763 33.9852 27.1115C34.0212 26.6699 34.0556 26.2275 34.1137 25.7875C34.1514 25.5007 34.0777 25.0697 34.5622 25.1039C34.9992 25.1348 34.9477 25.5561 34.9747 25.8486C35.0074 26.2014 34.9509 27.6216 34.9288 27.9752ZM18.8103 29.802C18.4535 29.7498 18.1245 29.582 17.8626 29.3245C17.5107 28.9782 17.5778 28.5537 18.0467 28.3696C18.3291 28.2579 18.6572 28.2172 18.965 28.2188C20.6247 28.227 22.2853 28.2441 23.9442 28.2889C24.4819 28.3036 25.0138 28.337 25.5548 28.3011C27.0459 28.2025 28.5093 28.2865 29.8907 28.9717C30.4153 29.2316 31.0119 29.2642 31.6037 29.2577C32.5465 29.2471 33.4893 29.2683 34.4321 29.2699C34.9714 29.2707 35.5304 29.2944 36.0083 29.01C36.7768 28.5537 37.6247 28.4714 38.4758 28.4551C40.1364 28.4242 41.7986 28.438 43.4599 28.4445C43.8896 28.4462 44.8316 28.4673 44.6425 28.9741C44.5165 29.3115 43.4853 29.2618 42.9157 29.2675C41.3452 29.283 39.7738 29.2862 38.2033 29.2846C37.3751 29.2838 36.5829 29.45 35.8995 29.9087C35.2611 30.3365 34.5835 30.4448 33.8494 30.3821C31.6135 30.1914 29.3719 30.1157 27.1319 30.0024C25.1104 29.9006 23.0963 29.9332 21.0814 30.0155C20.3055 30.048 19.5616 29.912 18.8103 29.802ZM42.7978 30.4131C40.4056 30.1678 38.0576 30.3772 35.7595 31.0633C34.6833 31.3843 33.6169 31.1317 32.5563 31.082C29.1165 30.9207 25.6841 30.6127 22.2353 30.6567C22.0152 30.6591 21.7942 30.6217 21.5741 30.6029C23.7559 30.4082 25.9869 30.3071 28.2187 30.4693C30.1371 30.6086 32.0554 30.7422 33.9738 30.8824C34.6711 30.9329 35.3078 30.7585 35.8831 30.3748C36.456 29.9926 37.0698 29.7881 37.7704 29.7751C39.8238 29.736 41.8763 29.6618 43.9297 29.6097C44.2865 29.6007 44.6466 29.6105 45.0018 29.6431C45.2482 29.6659 45.4151 29.8232 45.4004 30.0863C45.3857 30.3585 45.1581 30.4831 44.9421 30.484C44.2268 30.4856 43.5082 30.4856 42.7978 30.4131ZM44.8242 31.3558C44.771 31.6996 44.4428 31.685 44.19 31.6687C43.8069 31.6442 43.1228 31.4878 42.8756 30.8628C43.3699 30.8653 43.9485 30.9182 44.2972 30.9459C44.5525 30.9663 44.8823 30.9753 44.8242 31.3558ZM19.3267 51.8226C19.3455 51.838 19.3709 51.86 19.3734 51.8625L19.3267 51.8226ZM33.5801 47.8064C33.2274 46.2249 33.2953 44.6312 33.4762 43.0277C33.5736 43.022 33.6718 43.0171 33.7692 43.0114C33.8641 44.6019 33.959 46.1915 34.054 47.782C33.9386 47.7901 33.6963 47.7983 33.5801 47.8064ZM36.5043 34.3787C36.7613 34.1693 37.0641 34.109 37.3792 34.0837C39.2476 33.933 41.116 33.7855 43.3028 33.6111C43.4313 33.6111 43.8798 33.5891 44.3258 33.6177C44.7424 33.6445 45.2645 33.4449 45.483 34.0226C45.7237 34.6581 45.8554 35.3198 45.6451 35.9814C45.5493 36.2828 45.2056 36.2649 44.9454 36.2307C42.2798 35.882 39.5938 35.8665 36.9151 35.7255C36.5992 35.7092 36.2555 35.71 36.1573 35.3238C36.0632 34.9482 36.1974 34.6288 36.5043 34.3787ZM48.2345 48.2896C47.6576 48.3768 47.7476 47.7796 47.6944 47.4096C47.3114 44.7599 46.9324 42.1102 46.5658 39.4581C46.4946 38.9431 46.3686 38.5683 45.8227 38.2383C45.2645 37.9018 44.8005 37.813 44.2317 37.6908C42.459 37.3078 40.6602 37.4138 38.8695 37.3787C38.2418 37.3665 37.6124 37.3698 36.9871 37.3282C36.172 37.2744 36.1736 37.259 36.1908 36.3162C37.7933 36.3162 39.3941 36.269 40.9908 36.3301C42.3764 36.3831 43.757 36.555 45.1385 36.6821C45.9332 36.7554 46.0862 36.6422 46.0977 35.8363C46.105 35.3466 46.0772 34.8537 46.024 34.3656C45.9438 33.6185 45.2752 33.0685 44.5222 33.1182C42.8314 33.2282 41.1422 33.3683 39.453 33.4995C38.6927 33.5582 37.9275 33.5826 37.1754 33.6983C36.0116 33.8776 35.7112 34.2255 35.7219 35.3784C35.7579 39.5738 35.8291 43.77 35.8569 47.9653C35.8708 50.0585 35.8324 52.1517 35.9633 54.2425C35.974 54.4185 35.9715 54.6051 35.9257 54.7737C35.8635 55.0027 35.7031 55.1616 35.4395 55.1453C35.185 55.1298 35.0254 54.9831 34.9878 54.7363C34.9403 54.4274 34.9043 54.1162 34.8838 53.8049C34.7513 51.8014 34.6277 49.7978 34.4951 47.7942C34.3977 46.3252 34.3036 44.8553 34.1857 43.387C34.1031 42.3596 33.8805 42.1045 32.81 41.9016C30.0339 41.3745 27.2505 40.8889 24.4123 40.8424C23.2935 40.8237 22.1903 40.5303 21.0601 40.6697C20.7041 40.7137 20.3554 40.7528 19.9348 40.9272C19.8628 40.9565 19.8497 41.0502 19.9037 41.1056C20.3031 41.5203 20.2155 42.0051 20.1607 42.4907C19.8889 44.883 19.6115 47.2744 19.3676 49.6699C19.2956 50.3771 19.3259 51.0949 19.3087 51.8079C18.077 51.772 18.086 51.7729 18.1425 50.637C18.3855 45.7776 18.6204 40.9182 18.8635 36.0588C18.9126 35.0794 18.9862 34.1008 19.0419 33.1214C19.0599 32.802 19.2015 32.4492 19.4503 32.2252C20.1787 31.5701 21.0003 31.1562 22.0487 31.148C26.4829 31.1105 30.9015 31.3688 35.4821 31.7754C34.9018 32.6904 34.0417 32.9047 33.2855 32.9365C30.7803 33.0416 28.2727 33.1182 25.7602 32.9381C24.5621 32.8526 23.3443 32.9968 22.1379 33.0766C21.2753 33.1337 21.0814 33.8328 20.9742 34.4993C20.7827 35.6872 20.628 36.8842 20.5289 38.0827C20.5109 38.3019 20.4733 38.5007 20.3906 38.6873C20.3014 38.8894 19.9511 38.9578 19.9102 39.2275C19.8832 39.4051 20.2589 39.3595 20.4176 39.397C21.2074 39.5803 21.9505 39.617 22.6822 39.6936C26.0262 40.0415 29.3743 40.3601 32.72 40.6925C33.7773 40.7976 33.9034 40.7218 33.941 39.6716C33.9901 38.2905 33.9787 36.907 34.009 35.5243C34.0212 34.9449 34.0662 34.3664 34.1104 33.7888C34.1309 33.5223 34.153 33.194 34.4353 33.0994C35.2767 32.8167 35.9461 32.3824 36.3234 31.531C36.4028 31.3509 36.7744 31.2605 37.0281 31.201C38.43 30.8718 39.8606 30.761 41.2944 30.6991C41.8035 30.6771 42.2667 30.7626 42.5384 31.2955C42.8641 31.9343 43.5099 32.05 44.1351 32.1364C44.965 32.2512 45.1483 32.1062 45.4667 31.245C45.5428 31.0388 45.6287 30.827 45.7539 30.6485C46.114 30.1344 46.0527 29.4492 45.7621 29.1281C44.5321 27.7666 45.1009 26.168 44.9994 24.6615C44.9601 24.0821 45.2416 23.7456 45.9103 23.7432C46.2728 25.2318 46.3031 26.753 46.4709 28.2498C47.1812 34.5921 47.8245 40.9418 48.4907 47.2882C48.53 47.659 48.8156 48.2016 48.2345 48.2896ZM33.0923 34.1293C32.9827 36.1199 33.0702 38.1112 32.9647 40.193C31.1789 40.0366 29.2671 39.8989 27.5419 39.7294C25.7168 39.5493 23.8934 39.3481 22.0716 39.1379C20.957 39.0099 20.8964 38.926 20.966 37.7902C21.0339 36.6772 21.2058 35.5805 21.4456 34.4895C21.5822 33.8678 21.8818 33.6242 22.5242 33.5468C24.1299 33.3537 25.7316 33.2934 27.3414 33.4311C28.9471 33.5688 30.552 33.4897 32.1544 33.3757C32.7306 33.3365 33.1316 33.4213 33.0923 34.1293Z" fill="#425471" stroke="#425471" stroke-width="0.5"/>
</svg>
