<svg width="16" height="16" viewBox="0 0 16 16" fill="none" xmlns="http://www.w3.org/2000/svg">
<g id="Iconly/Light-Outline/Delete">
<g id="Delete">
<path id="Fill 1" fill-rule="evenodd" clip-rule="evenodd" d="M8.16432 14.6667C7.26098 14.6667 6.38032 14.6567 5.50898 14.6387C4.39432 14.6167 3.62298 13.894 3.49698 12.7527C3.28698 10.8593 2.92765 6.39666 2.92432 6.352C2.90165 6.07666 3.10698 5.83533 3.38232 5.81333C3.65365 5.806 3.89898 5.99666 3.92098 6.27133C3.92432 6.31666 4.28298 10.764 4.49098 12.6427C4.56232 13.2913 4.91232 13.626 5.52965 13.6387C7.19632 13.674 8.89698 13.676 10.7303 13.6427C11.3863 13.63 11.741 13.302 11.8143 12.638C12.021 10.7753 12.381 6.31666 12.385 6.27133C12.407 5.99666 12.6503 5.80466 12.923 5.81333C13.1983 5.836 13.4037 6.07666 13.3817 6.352C13.3777 6.39733 13.0163 10.8713 12.8083 12.748C12.679 13.9127 11.9097 14.6213 10.7483 14.6427C9.85965 14.658 9.00232 14.6667 8.16432 14.6667Z" fill="black"/>
<path id="Fill 3" fill-rule="evenodd" clip-rule="evenodd" d="M13.8053 4.65953H2.5C2.224 4.65953 2 4.43553 2 4.15953C2 3.88353 2.224 3.65953 2.5 3.65953H13.8053C14.0813 3.65953 14.3053 3.88353 14.3053 4.15953C14.3053 4.43553 14.0813 4.65953 13.8053 4.65953Z" fill="black"/>
<path id="Fill 5" fill-rule="evenodd" clip-rule="evenodd" d="M11.6269 4.65953C10.8682 4.65953 10.2096 4.11886 10.0602 3.37486L9.89822 2.56419C9.86422 2.44086 9.72356 2.33353 9.56356 2.33353H6.74156C6.58156 2.33353 6.44089 2.44086 6.40022 2.59486L6.24489 3.37486C6.09622 4.11886 5.43689 4.65953 4.67822 4.65953C4.40222 4.65953 4.17822 4.43553 4.17822 4.15953C4.17822 3.88353 4.40222 3.65953 4.67822 3.65953C4.96222 3.65953 5.20889 3.45686 5.26489 3.17819L5.42689 2.36753C5.59156 1.74619 6.12956 1.33353 6.74156 1.33353H9.56356C10.1756 1.33353 10.7136 1.74619 10.8716 2.33753L11.0409 3.17819C11.0962 3.45686 11.3429 3.65953 11.6269 3.65953C11.9029 3.65953 12.1269 3.88353 12.1269 4.15953C12.1269 4.43553 11.9029 4.65953 11.6269 4.65953Z" fill="black"/>
<path id="Line 8 (Stroke)" fill-rule="evenodd" clip-rule="evenodd" d="M6.54971 12.4975C6.27494 12.525 6.02992 12.3245 6.00244 12.0497L5.50244 7.04974C5.47497 6.77497 5.67544 6.52995 5.95021 6.50247C6.22498 6.475 6.47 6.67547 6.49748 6.95024L6.99748 11.9502C7.02496 12.225 6.82449 12.47 6.54971 12.4975Z" fill="black"/>
<path id="Line 9 (Stroke)" fill-rule="evenodd" clip-rule="evenodd" d="M10.5497 6.50247C10.8245 6.52995 11.025 6.77497 10.9975 7.04974L10.4975 12.0497C10.47 12.3245 10.225 12.525 9.95021 12.4975C9.67544 12.47 9.47497 12.225 9.50244 11.9502L10.0024 6.95024C10.0299 6.67547 10.2749 6.475 10.5497 6.50247Z" fill="black"/>
</g>
</g>
</svg>
