<svg width="69" height="69" viewBox="0 0 69 69" fill="none"
  xmlns="http://www.w3.org/2000/svg">
  <path d="M34.378 68.5695C53.2027 68.5695 68.4631 53.3091 68.4631 34.4845C68.4631 15.6598 53.2027 0.399414 34.378 0.399414C15.5534 0.399414 0.292969 15.6598 0.292969 34.4845C0.292969 53.3091 15.5534 68.5695 34.378 68.5695Z" fill="#F6BEA5"/>
  <path d="M34.4532 50.9138C36.6126 50.9138 38.7236 50.2734 40.5191 49.0737C42.3146 47.874 43.714 46.1687 44.5404 44.1736C45.3668 42.1786 45.583 39.9832 45.1617 37.8653C44.7404 35.7473 43.7005 33.8019 42.1736 32.2749C40.6466 30.748 38.7012 29.7081 36.5832 29.2868C34.4653 28.8655 32.2699 29.0817 30.2749 29.908C28.2798 30.7344 26.5746 32.1339 25.3749 33.9294C24.1751 35.7249 23.5348 37.836 23.5348 39.9954C23.5382 42.8901 24.6896 45.6651 26.7365 47.712C28.7833 49.7588 31.5585 50.9103 34.4532 50.9138V50.9138ZM34.4532 30.6367C36.89 30.6402 39.2294 31.5937 40.9745 33.2945C42.7195 34.9954 43.7327 37.3097 43.7988 39.7456C42.6983 40.577 41.3618 41.0368 39.9828 41.0585C38.3241 41.0585 36.6134 40.2032 34.8019 39.298C32.9034 38.3507 30.9509 37.3725 28.9235 37.3725C27.6424 37.3802 26.3826 37.7016 25.2544 38.3086C25.6508 36.1571 26.7876 34.2122 28.4677 32.8109C30.1479 31.4096 32.2654 30.6404 34.4532 30.6367ZM28.9235 38.9302C30.5822 38.9302 32.2929 39.7855 34.1044 40.6908C35.9979 41.637 37.9554 42.6163 39.9828 42.6163C41.2638 42.6083 42.5234 42.2872 43.6519 41.681C43.2368 43.9565 41.9929 45.9974 40.1607 47.4092C38.3285 48.821 36.0379 49.5036 33.7318 49.3249C31.4256 49.1463 29.2676 48.1191 27.6747 46.4418C26.0818 44.7646 25.1671 42.5564 25.1075 40.2441C26.2079 39.4127 27.5445 38.9532 28.9235 38.9322V38.9302ZM44.5921 18.1566C44.1295 18.1566 43.6772 18.2938 43.2926 18.5508C42.9079 18.8078 42.6081 19.1732 42.431 19.6006C42.254 20.0281 42.2077 20.4984 42.2979 20.9521C42.3882 21.4059 42.6109 21.8226 42.9381 22.1498C43.2652 22.4769 43.682 22.6998 44.1358 22.79C44.5895 22.8803 45.0599 22.8339 45.4873 22.6568C45.9147 22.4798 46.28 22.18 46.537 21.7953C46.7941 21.4106 46.9313 20.9584 46.9313 20.4958C46.9299 19.8765 46.6835 19.283 46.2457 18.845C45.8079 18.407 45.2144 18.1602 44.5951 18.1587L44.5921 18.1566ZM44.5921 21.2762C44.4377 21.2764 44.2868 21.2307 44.1583 21.1451C44.0298 21.0594 43.9296 20.9377 43.8704 20.7951C43.8112 20.6526 43.7956 20.4956 43.8256 20.3442C43.8556 20.1927 43.9299 20.0536 44.039 19.9444C44.1481 19.8351 44.2871 19.7606 44.4385 19.7304C44.5899 19.7002 44.7469 19.7157 44.8895 19.7747C45.0322 19.8337 45.1541 19.9337 45.2399 20.0621C45.3257 20.1904 45.3715 20.3414 45.3715 20.4958C45.3721 20.7024 45.2906 20.9008 45.1451 21.0475C44.9995 21.1942 44.8018 21.2771 44.5951 21.2781L44.5921 21.2762ZM39.9128 18.1566C39.706 18.1566 39.5077 18.2387 39.3614 18.3848C39.215 18.5309 39.1327 18.7292 39.1324 18.936V20.4958C39.1287 20.6006 39.1461 20.7049 39.1836 20.8028C39.2211 20.9007 39.278 20.9901 39.3507 21.0655C39.4235 21.141 39.5108 21.2009 39.6073 21.2419C39.7037 21.2829 39.8075 21.3041 39.9123 21.3041C40.0172 21.3041 40.1209 21.2829 40.2174 21.2419C40.3139 21.2009 40.4011 21.141 40.4739 21.0655C40.5467 20.9901 40.6036 20.9007 40.6411 20.8028C40.6786 20.7049 40.696 20.6006 40.6922 20.4958V18.936C40.6917 18.7296 40.6093 18.5319 40.4632 18.3861C40.3171 18.2404 40.1192 18.1587 39.9128 18.1587V18.1566ZM36.7933 18.1566C36.5865 18.1566 36.3882 18.2387 36.2418 18.3848C36.0955 18.5309 36.0132 18.7292 36.0129 18.936V20.4958C36.0091 20.6006 36.0266 20.7049 36.0641 20.8028C36.1016 20.9007 36.1584 20.9901 36.2312 21.0655C36.304 21.141 36.3912 21.2009 36.4877 21.2419C36.5842 21.2829 36.688 21.3041 36.7928 21.3041C36.8976 21.3041 37.0014 21.2829 37.0979 21.2419C37.1944 21.2009 37.2816 21.141 37.3544 21.0655C37.4272 20.9901 37.484 20.9007 37.5215 20.8028C37.559 20.7049 37.5764 20.6006 37.5727 20.4958V18.936C37.5721 18.7296 37.4898 18.5319 37.3437 18.3861C37.1976 18.2404 36.9996 18.1587 36.7933 18.1587V18.1566ZM46.9313 15.0361H21.975C21.1478 15.0372 20.3548 15.3663 19.77 15.9513C19.1851 16.5363 18.8563 17.3294 18.8555 18.1566V52.4715C18.8563 53.2986 19.1852 54.0916 19.77 54.6764C20.3549 55.2613 21.1479 55.5902 21.975 55.591H46.9313C47.7584 55.5902 48.5514 55.2613 49.1362 54.6764C49.7211 54.0916 50.05 53.2986 50.0508 52.4715V18.1566C50.0495 17.3297 49.7204 16.5371 49.1356 15.9525C48.5508 15.3679 47.7581 15.0391 46.9313 15.0381V15.0361ZM48.491 52.4715C48.4908 52.8851 48.3264 53.2817 48.0339 53.5741C47.7415 53.8666 47.3449 54.031 46.9313 54.0313H21.975C21.5614 54.031 21.1648 53.8666 20.8724 53.5741C20.5799 53.2817 20.4155 52.8851 20.4152 52.4715V25.9555H48.4931L48.491 52.4715ZM48.491 24.3937H20.4142V18.1546C20.4145 17.741 20.5789 17.3442 20.8713 17.0516C21.1638 16.759 21.5603 16.5944 21.974 16.5939H46.9303C47.344 16.5944 47.7405 16.759 48.033 17.0516C48.3254 17.3442 48.4898 17.741 48.49 18.1546L48.491 24.3937ZM28.9935 18.1546H22.7544C22.5477 18.1546 22.3494 18.2367 22.2033 18.3829C22.0571 18.529 21.975 18.7273 21.975 18.9341V22.0535C21.975 22.2603 22.0571 22.4587 22.2032 22.605C22.3494 22.7513 22.5476 22.8337 22.7544 22.8339H28.9935C29.2004 22.8339 29.3989 22.7517 29.5453 22.6053C29.6916 22.459 29.7738 22.2605 29.7738 22.0535V18.9341C29.7725 18.7279 29.6897 18.5307 29.5435 18.3854C29.3973 18.2401 29.1996 18.1587 28.9935 18.1587V18.1546ZM28.2141 21.2741H23.5348V19.7144H28.2141V21.2741Z" fill="#191919"/>
</svg>